<?xml version="1.0" standalone="no"?>
<!DOCTYPE svg PUBLIC "-//W3C//DTD SVG 1.1//EN" "http://www.w3.org/Graphics/SVG/1.1/DTD/svg11.dtd">
<svg xmlns="http://www.w3.org/2000/svg">
<defs >
<font id="MavenPro" horiz-adv-x="550" ><font-face
    font-family="Maven Pro ExtraBold"
    units-per-em="1000"
    panose-1="0 0 0 0 0 0 0 0 0 0"
    ascent="965"
    descent="-210"
    alphabetic="0" />
<glyph unicode=" " horiz-adv-x="273" />
<glyph unicode="!" horiz-adv-x="422" d="M158 188L138 667H296L276 188H158ZM145 0V121H289V0H145Z" />
<glyph unicode="&quot;" horiz-adv-x="430" d="M248 475L230 676H348L331 475H248ZM99 475L81 676H199L182 475H99Z" />
<glyph unicode="#" horiz-adv-x="623" d="M128 19L147 122H74V208H160L182 332H101V418H197L215 522H306L287 418H397L416 522H507L487 418H550V332H474L452 208H523V122H438L420 19H329L347 122H236L219 19H128ZM251 208H363L383 332H273L251 208Z" />
<glyph unicode="$" horiz-adv-x="581" d="M236 615V755H359V615H236ZM236 -99V42H359V-99H236ZM299 -14Q249 -14 206 -10T127 3T57 29V199Q107 160 166 142T273 123Q311 123 334 137T357 185Q357 208 335 222T275 248T190 276Q162 286 136 300T88 335T54 387T41
462Q41 506 57 546T107 617T191 665T310 683Q351 683 384 679T446 664T506 639V467Q484 486 455 503T393 532T329 546Q302 547 279 542T241 522T226 484Q226 459 242 445T288 421T354 401Q396 389 430 374T490 337T529 284T543 207Q543 143 513 93T429 15T299 -14Z"
/>
<glyph unicode="%" horiz-adv-x="835" d="M190 311Q100 311 60 357T20 495Q20 587 60 633T190 679Q281 679 320 633T360 495Q360 404 321 358T190 311ZM190 404Q203 404 215 411T235 438T244 495Q244 534 236 553T215 580T190 588Q178 588 166 581T145 554T136
495Q136 458 144 438T165 411T190 404ZM645 -13Q555 -13 515 33T475 171Q475 263 515 309T645 355Q736 355 775 309T815 171Q815 80 776 34T645 -13ZM645 80Q658 80 670 87T690 114T699 171Q699 210 691 229T670 256T645 264Q633 264 621 257T600 230T591 171Q591
134 599 114T620 87T645 80ZM155 -22L562 685H678L271 -22H155Z" />
<glyph unicode="&amp;" horiz-adv-x="694" d="M459 0L159 365Q139 391 119 427T98 500Q98 548 127 589T209 655T327 681Q391 681 437 660T510 600T536 514Q536 468 514 436T454 376T364 319L304 410Q333 426 349 440T373 467T380 495Q380 519 366 533T326 547Q302
547 286 533T270 496Q270 484 277 471T293 446T308 426L660 0H459ZM252 -14Q203 -14 164 0T96 39T53 97T38 167Q38 202 53 237T103 304T197 362L298 284Q276 271 259 254T231 219T220 183Q220 173 222 161T231 138T252 121T290 114Q316 114 344 131T388 168L467
71Q447 47 420 28T352 -2T252 -14ZM456 217Q470 233 478 253T490 289T495 306H615Q609 271 588 224T538 135L456 217Z" />
<glyph unicode="&apos;" horiz-adv-x="280" d="M99 475L81 676H199L182 475H99Z" />
<glyph unicode="(" horiz-adv-x="356" d="M199 -113Q162 -73 126 -10T67 133T44 306Q44 399 67 479T126 622T199 724H334Q319 696 301 654T267 558T240 441T229 306Q229 235 239 172T266 54T301 -42T334 -113H199Z" />
<glyph unicode=")" horiz-adv-x="356" d="M23 -113Q37 -85 55 -43T89 53T116 171T127 305Q127 376 117 439T90 557T55 653T23 724H157Q195 684 230 621T289 479T312 305Q312 213 289 133T231 -10T157 -113H23Z" />
<glyph unicode="*" horiz-adv-x="413" d="M171 460L178 528L120 487L84 551L163 581L84 611L120 675L178 634L171 702H245L240 634L296 675L333 611L255 581L333 551L296 487L240 528L245 460H171Z" />
<glyph unicode="+" horiz-adv-x="551" d="M223 119V247H94V351H223V480H327V351H455V247H327V119H223Z" />
<glyph unicode="," horiz-adv-x="359" d="M74 -112L148 84H278L184 -112H74Z" />
<glyph unicode="-" horiz-adv-x="464" d="M79 253V363H384V253H79Z" />
<glyph unicode="." horiz-adv-x="263" d="M55 0V149H209V0H55Z" />
<glyph unicode="/" horiz-adv-x="454" d="M-14 -98L353 756H469L101 -98H-14Z" />
<glyph unicode="0" horiz-adv-x="671" d="M335 -14Q181 -14 110 72T39 334Q39 507 110 594T335 681Q491 681 561 594T632 334Q632 159 562 73T335 -14ZM335 131Q356 131 376 138T412 167T438 228T448 334Q448 398 438 438T412 498T376 527T335 535Q315 535 295
527T259 499T233 438T224 334Q224 268 233 228T258 167T295 139T335 131Z" />
<glyph unicode="1" horiz-adv-x="474" d="M178 0V493L49 424V581L203 667H359V0H178Z" />
<glyph unicode="2" horiz-adv-x="614" d="M69 0V125Q103 144 141 172T217 234T284 305T332 377T351 445Q351 482 336 504T296 535T245 544Q199 544 159 522T74 465V617Q115 642 170 661T302 681Q375 681 426 658T505 588T532 472Q532 424 515 383T467 307T400
243T327 188T257 139L223 164H546V0H69Z" />
<glyph unicode="3" horiz-adv-x="597" d="M269 -8Q215 -8 165 8T70 46V197Q117 169 163 147T262 125Q313 125 343 143T373 196Q373 232 349 254T259 277H155V409H261Q304 409 323 428T343 472Q343 499 329 513T292 533T244 539Q211 539 175 532T83 497V631Q121
651 167 663T261 676Q303 676 345 667T423 636T479 579T501 493Q501 467 492 445T467 405T434 376T399 362Q424 355 447 340T488 302T518 251T529 187Q529 131 506 94T445 34T362 2T269 -8Z" />
<glyph unicode="4" horiz-adv-x="614" d="M318 0V175H39V298L334 667H500V309H583V175H500V0H318ZM189 309H318V470L189 309Z" />
<glyph unicode="5" horiz-adv-x="605" d="M278 -13Q213 -13 159 4T78 43V210Q95 191 123 173T185 144T254 133Q281 133 304 138T345 153T371 180T381 217Q381 247 368 266T332 295T279 305Q253 305 229 300T186 288T157 276L79 362L124 668H510V513H235L208 335L93
379Q134 420 192 438T330 457Q377 457 419 444T495 403T547 334T566 232Q566 161 543 114T478 39T385 -1T278 -13Z" />
<glyph unicode="6" horiz-adv-x="634" d="M309 -13Q169 -13 105 70T40 308Q40 408 62 475T123 583T205 645T294 673T375 681Q429 681 468 673T531 654V503Q498 519 465 528T388 537Q351 537 323 529T276 503T244 461T227 405T221 338Q221 273 228 232T249 170T282
141T323 133Q346 133 362 139T389 156T406 182T411 216Q411 264 389 287T329 310Q296 310 275 300T240 266T220 205L176 271Q180 294 192 322T226 377T281 421T363 439Q482 438 538 382T595 213Q595 163 577 121T522 49T433 3T309 -13Z" />
<glyph unicode="7" horiz-adv-x="595" d="M128 0L367 543L397 502H67V667H551V567L326 0H128Z" />
<glyph unicode="8" horiz-adv-x="641" d="M321 -13Q250 -13 197 1T109 40T57 103T39 186Q39 218 49 243T75 287T111 320T152 342Q136 350 119 362T88 391T65 432T56 485Q56 551 85 594T172 659T321 681Q410 681 469 660T557 595T586 485Q586 455 578 432T555 392T524
362T490 342Q511 334 531 320T567 287T593 243T603 186Q603 140 586 103T533 41T445 1T321 -13ZM321 125Q346 125 363 133T391 156T406 186T411 218Q411 236 401 254T371 285T321 297Q291 297 271 285T241 255T231 218Q231 202 236 186T251 156T278 134T321 125ZM321
392Q337 392 355 400T386 424T399 465Q399 486 389 503T362 531T321 542Q298 542 281 532T253 504T243 465Q243 441 255 425T286 400T321 392Z" />
<glyph unicode="9" horiz-adv-x="637" d="M259 -13Q205 -13 166 -5T104 14V165Q136 149 169 140T246 131Q283 131 311 139T358 165T390 207T407 263T413 330Q413 395 406 436T385 498T351 527T307 535Q286 535 271 529T245 512T229 486T223 452Q223 405 246 382T306
358Q339 358 360 368T394 402T414 463L458 397Q454 374 443 346T409 291T353 247T272 229Q153 230 97 286T40 455Q40 506 57 547T110 619T194 665T307 681Q461 681 528 598T595 360Q595 260 572 193T511 85T429 23T341 -5T259 -13Z" />
<glyph unicode=":" horiz-adv-x="419" d="M140 333V462H275V333H140ZM140 37V166H275V37H140Z" />
<glyph unicode=";" horiz-adv-x="314" d="M36 -112L108 101H257L146 -112H36ZM105 313V462H259V313H105Z" />
<glyph unicode="&lt;" horiz-adv-x="667" d="M540 37L120 224V311L540 498V371L281 268L540 164V37Z" />
<glyph unicode="=" horiz-adv-x="638" d="M123 341V451H515V341H123ZM123 146V256H515V146H123Z" />
<glyph unicode="&gt;" horiz-adv-x="658" d="M118 37V164L377 268L118 371V498L538 311V224L118 37Z" />
<glyph unicode="?" horiz-adv-x="519" d="M177 188V207Q177 262 192 297T228 357T272 400T310 437T325 483Q325 516 311 531T274 552T228 558Q190 558 150 546T80 509V629Q95 640 121 650T179 668T247 675Q300 675 339 660T403 619T440 557T453 482Q453 439 438
411T401 362T357 321T319 273T304 204V188H177ZM169 0V121H313V0H169Z" />
<glyph unicode="@" horiz-adv-x="913" d="M409 -150Q371 -150 327 -139T239 -104T160 -40T103 54T81 182Q81 275 119 352T219 485T356 571T508 602Q546 602 591 591T680 556T761 493T819 401T841 275Q841 229 831 184T800 103T745 45T667 24Q642 24 624 34T596
58T579 85Q564 59 530 42T442 24Q367 24 324 57T280 150Q280 173 288 198T320 246T387 283T505 297Q519 297 532 297T559 294Q559 299 559 302T558 310Q557 326 550 338T525 357T477 365Q443 365 408 360T340 343L353 426Q381 434 416 442T484 451Q565 451 607
414T649 303Q649 265 642 227T633 150Q633 138 635 123T647 98T676 87Q696 87 720 106T762 167T781 275Q781 339 756 388T690 471T601 522T505 540Q435 540 371 512T255 434T173 319T143 179Q143 112 164 65T219 -12T290 -60T359 -83T409 -90Q474 -90 529 -77T635
-39L625 -108Q582 -127 528 -138T409 -150ZM442 114Q473 114 492 121T523 141T540 174T548 220Q537 221 527 221T505 221Q370 221 370 152Q370 136 381 128T408 117T442 114Z" />
<glyph unicode="A" horiz-adv-x="702" d="M12 0L261 667H460L690 0H504L295 636L388 644L180 0H12ZM159 131L193 260H491L508 131H159Z" />
<glyph unicode="B" horiz-adv-x="680" d="M68 0V667H364Q434 667 488 650T575 592T608 481Q608 436 584 406T527 358T464 330L443 371Q504 369 548 349T616 292T641 204Q641 134 607 89T516 22T392 0H68ZM250 138H377Q398 138 415 145T443 168T454 211Q454 230
448 243T431 265T405 277T374 281H250V138ZM249 410H371Q385 410 396 416T416 435T424 466Q424 501 405 515T361 529H249V410Z" />
<glyph unicode="C" horiz-adv-x="631" d="M367 -14Q205 -14 120 70T34 333Q34 506 115 594T367 683Q420 683 474 670T581 634V478Q527 514 479 529T392 545Q338 545 300 526T242 460T221 332Q221 253 242 207T302 143T400 124Q434 124 480 139T581 189V33Q554
19 518 9T442 -8T367 -14Z" />
<glyph unicode="D" horiz-adv-x="721" d="M68 0V667H348Q521 667 601 582T682 333Q682 170 602 85T348 0H68ZM249 138H326Q409 138 452 184T496 333Q496 436 453 482T326 529H249V138Z" />
<glyph unicode="E" horiz-adv-x="595" d="M68 0V667H533V529H250V403H494V265H249V138H533V0H68Z" />
<glyph unicode="F" horiz-adv-x="576" d="M68 0V667H531V529H249V386H492V247H249V0H68Z" />
<glyph unicode="G" horiz-adv-x="710" d="M368 -14Q270 -14 196 20T81 130T39 333Q39 456 80 533T196 647T367 683Q432 683 493 670T612 634V471Q549 505 498 524T391 544Q339 544 302 526T244 462T224 334Q224 254 245 208T301 142T381 123Q406 123 426 126T461
137V240H361V378H642V62Q578 25 509 6T368 -14Z" />
<glyph unicode="H" horiz-adv-x="719" d="M68 0V667H249V404H470V667H651V0H470V257H249V0H68Z" />
<glyph unicode="I" horiz-adv-x="318" d="M68 0V667H250V0H68Z" />
<glyph unicode="J" horiz-adv-x="484" d="M195 -14Q150 -14 109 -3T32 24V187Q67 162 95 145T149 128Q187 128 210 147T234 211V667H416V203Q416 141 397 99T346 32T275 -3T195 -14Z" />
<glyph unicode="K" horiz-adv-x="694" d="M242 198L176 303L430 667H658L242 198ZM68 0V667H250V0H68ZM394 421L677 0H452L254 306L394 421Z" />
<glyph unicode="L" horiz-adv-x="561" d="M68 0V667H250V139H528V0H68Z" />
<glyph unicode="M" horiz-adv-x="859" d="M68 0V667H251L476 361L381 359L613 667H791V0H610V534L641 472L424 186L204 479L240 501V0H68Z" />
<glyph unicode="N" horiz-adv-x="725" d="M68 0V667H218L546 232L491 116V667H657V0H525L195 424L233 506V0H68Z" />
<glyph unicode="O" horiz-adv-x="740" d="M370 -14Q271 -14 197 23T81 137T39 333Q39 505 126 593T370 681Q469 681 543 644T659 531T701 334Q701 162 614 74T370 -14ZM370 132Q415 132 447 151T496 214T514 335Q514 410 497 454T447 516T370 535Q325 535 293
516T244 452T226 332Q226 257 243 214T293 151T370 132Z" />
<glyph unicode="P" horiz-adv-x="675" d="M249 211V0H68V667H381Q499 667 567 614T636 447Q636 334 568 273T381 211H249ZM249 349H359Q378 349 393 354T419 371T434 399T440 435Q440 458 435 475T419 504T394 523T359 529H249V349Z" />
<glyph unicode="Q" horiz-adv-x="740" d="M370 -23Q209 -23 124 62T39 333Q39 511 120 600T370 690Q532 690 616 605T701 334Q701 156 620 67T370 -23ZM370 98Q415 98 447 118T497 190T514 335Q514 419 497 466T447 532T370 552Q325 552 293 532T244 465T226 332Q226
240 243 189T293 118T370 98ZM634 -3Q653 -3 666 0T700 17V-90Q684 -99 659 -104T599 -109Q572 -109 544 -103T490 -80T447 -33T420 45Q414 86 400 115T368 161T328 177Q298 177 271 164T223 120V230Q240 259 278 280T363 301Q400 301 436 285T502 228T545 110Q556
62 578 30T634 -3Z" />
<glyph unicode="R" horiz-adv-x="726" d="M68 0V667H404Q520 667 587 614T654 452Q654 411 638 369T588 296T503 253L483 314L690 0H458L297 287L376 221H249V0H68ZM249 351H378Q412 351 435 372T458 443Q458 487 437 508T382 529H249V351Z" />
<glyph unicode="S" horiz-adv-x="581" d="M299 -14Q249 -14 206 -10T127 3T57 29V199Q107 160 166 142T273 123Q311 123 334 137T357 185Q357 208 335 222T275 248T190 276Q162 286 136 300T88 335T54 387T41 462Q41 506 57 546T107 617T191 665T310 683Q351 683
384 679T446 664T506 639V467Q484 486 455 503T393 532T329 546Q302 547 279 542T241 522T226 484Q226 459 242 445T288 421T354 401Q396 389 430 374T490 337T529 284T543 207Q543 143 513 93T429 15T299 -14Z" />
<glyph unicode="T" horiz-adv-x="587" d="M202 0V529H24V667H563V529H382V0H202Z" />
<glyph unicode="U" horiz-adv-x="733" d="M384 -23Q225 -23 147 41T68 244V667H257V254Q257 183 284 149T375 115Q431 115 462 149T493 254V667H665V244Q665 151 629 92T530 5T384 -23Z" />
<glyph unicode="V" horiz-adv-x="728" d="M259 0L12 667H222L402 108H344L523 667H716L453 0H259Z" />
<glyph unicode="W" horiz-adv-x="1017" d="M206 0L25 667H223L324 167H297L440 667H577L721 161H692L793 667H992L811 0H632L494 457H525L384 0H206Z" />
<glyph unicode="X" horiz-adv-x="699" d="M688 0H462L11 667H237L688 0ZM348 427L483 667H680L441 294L348 427ZM374 274L216 0H21L284 400L374 274Z" />
<glyph unicode="Y" horiz-adv-x="712" d="M277 0V285L23 667H246L432 347L346 346L511 667H688L432 240L458 333V0H277Z" />
<glyph unicode="Z" horiz-adv-x="639" d="M52 0V130L392 559L439 527H56V667H586V540L265 119L203 139H586V0H52Z" />
<glyph unicode="[" horiz-adv-x="399" d="M73 -116V696H357V550H254V31H357V-116H73Z" />
<glyph unicode="\" horiz-adv-x="421" d="M331 -98L-37 756H79L446 -98H331Z" />
<glyph unicode="]" horiz-adv-x="410" d="M68 -116V30H171V549H68V696H352V-116H68Z" />
<glyph unicode="^" horiz-adv-x="586" d="M122 469L255 690H324L460 469H356L291 594L225 469H122Z" />
<glyph unicode="_" horiz-adv-x="546" d="M0 -117V-24H546V-117H0Z" />
<glyph unicode="`" horiz-adv-x="270" d="M143 549L26 674H188L232 549H143Z" />
<glyph unicode="a" horiz-adv-x="575" d="M263 -15Q214 -15 173 -7T100 22T52 77T35 162Q35 207 53 241T112 295T214 315Q247 315 279 308T337 288T377 260L382 186Q362 197 337 203T285 210Q239 210 219 198T198 156Q198 141 207 128T232 107T266 99Q314 99 331
105T349 130V306Q349 350 321 369T240 389Q195 389 150 372T79 334V479Q103 495 158 509T286 523Q307 523 336 520T396 506T453 476T496 424T512 343L511 105Q511 64 483 37T399 -2T263 -15Z" />
<glyph unicode="b" horiz-adv-x="608" d="M302 -15Q259 -15 217 -9T139 11T84 53T63 124V690H225V412L196 464Q213 487 241 500T298 518T345 523Q456 523 515 456T574 255Q574 181 555 129T500 46T414 0T302 -15ZM301 122Q339 122 363 136T399 178T410 244Q410
302 396 334T357 379T301 393Q284 393 263 389T225 375V167Q225 151 234 141T261 126T301 122Z" />
<glyph unicode="c" horiz-adv-x="504" d="M306 -14Q249 -14 200 3T114 54T55 135T34 245Q34 312 53 364T108 451T193 504T304 522Q347 522 391 514T468 489V349Q433 366 400 377T332 388Q274 388 236 360T198 266Q198 196 230 160T340 123Q377 123 411 137T470
165V27Q435 7 397 -3T306 -14Z" />
<glyph unicode="d" horiz-adv-x="617" d="M312 -15Q248 -15 197 -2T110 43T54 126T34 258Q34 382 95 454T279 526Q293 526 318 524T371 511T422 475L391 423V715H554V141Q554 103 535 74T481 25T404 -5T312 -15ZM319 122Q352 122 371 131T391 159V375Q375 384
358 388T324 393Q284 393 256 381T214 339T200 252Q200 210 212 181T250 137T319 122Z" />
<glyph unicode="e" horiz-adv-x="565" d="M297 -15Q219 -15 160 16T67 106T34 245Q34 378 101 452T294 526Q378 526 430 490T507 383T531 209H149L129 310H391L371 256Q370 337 351 369T286 402Q262 402 242 389T211 345T199 264Q199 195 231 159T339 122Q366
122 393 128T443 144T482 158V18Q447 5 403 -5T297 -15Z" />
<glyph unicode="f" horiz-adv-x="398" d="M99 0V383H27V507H101V516Q101 564 110 599T137 659T179 697T234 717T301 723Q317 723 337 721T371 713V567Q360 579 349 586T317 594Q305 594 296 591T280 581T270 563T266 538V507H371V383H264V0H99Z" />
<glyph unicode="g" horiz-adv-x="598" d="M255 -15Q188 -11 139 16T62 98T34 238Q34 321 54 376T112 464T205 509T330 523Q397 523 444 507T517 459T543 384V-3Q543 -61 525 -103T471 -173T386 -214T276 -228Q205 -228 155 -218T80 -194V-48Q95 -56 125 -66T194
-84T271 -92Q313 -92 337 -80T371 -46T381 5V88L412 68Q397 43 376 24T326 -5T255 -15ZM302 106Q326 106 345 111T381 126V346Q381 366 371 376T343 389T308 393Q268 393 244 376T209 325T198 248Q198 182 228 144T302 106Z" />
<glyph unicode="h" horiz-adv-x="619" d="M63 0V703H229V398L155 436Q196 474 253 498T371 522Q424 522 466 506T532 450T556 339V0H391V302Q391 347 368 367T301 387Q280 387 259 381T229 367L227 0H63Z" />
<glyph unicode="i" horiz-adv-x="296" d="M65 0V499H231L232 0H65ZM63 572V695H233V572H63Z" />
<glyph unicode="j" horiz-adv-x="311" d="M6 -193V-61Q29 -64 46 -59T72 -38T81 0V507H246L248 2Q248 -75 216 -117T128 -176T6 -193ZM78 580V704H248V580H78Z" />
<glyph unicode="k" horiz-adv-x="604" d="M192 275L371 507H572L292 203L192 275ZM227 0H63V698H229L227 0ZM322 351L579 0H371L203 238L322 351Z" />
<glyph unicode="l" horiz-adv-x="290" d="M227 0H63V698H227V0Z" />
<glyph unicode="m" horiz-adv-x="923" d="M546 344V0H380V306Q380 326 375 341T359 367T331 382T290 387Q269 387 253 382T228 370V0H63V464Q81 474 113 484T184 502T263 516T336 522Q403 522 450 506T521 451T546 344ZM380 427Q411 455 457 476T554 509T650 522Q717
522 764 506T835 451T860 344V0H694V306Q694 326 689 341T673 367T645 382T604 387Q583 387 567 381T542 367L380 427Z" />
<glyph unicode="n" horiz-adv-x="617" d="M63 464Q81 474 113 484T184 502T263 516T336 522Q403 522 452 506T527 451T554 344V0H389V306Q389 326 384 341T368 367T340 382T298 387Q277 387 257 382T228 370V0H63V464Z" />
<glyph unicode="o" horiz-adv-x="594" d="M296 -15Q165 -15 100 53T34 256Q34 403 100 464T296 526Q382 526 441 499T530 412T561 256Q561 122 493 54T296 -15ZM296 116Q328 116 350 131T385 177T397 256Q397 312 385 342T351 385T296 397Q263 397 241 385T209
342T198 256Q198 183 222 150T296 116Z" />
<glyph unicode="p" horiz-adv-x="607" d="M352 -15Q339 -15 310 -13T249 0T194 36L225 88V-173H63V397Q63 430 82 454T134 494T213 518T312 526Q391 526 449 501T540 415T573 251Q573 172 547 112T471 19T352 -15ZM299 116Q335 116 359 128T396 171T409 257Q409
300 399 329T367 373T305 388Q258 388 242 380T225 357V134Q242 125 262 121T299 116Z" />
<glyph unicode="q" horiz-adv-x="608" d="M308 522Q375 522 428 509T513 465T545 376V-190H383V96L412 45Q391 14 361 2T305 -12T264 -15Q154 -15 94 52T34 245Q34 321 53 374T108 460T195 507T308 522ZM307 386Q269 386 245 371T210 327T198 256Q198 203 213
172T253 129T308 116Q326 116 346 120T383 134V341Q383 357 373 367T346 381T307 386Z" />
<glyph unicode="r" horiz-adv-x="439" d="M63 0V451Q78 465 114 481T196 510T288 523Q343 523 374 515T421 495V376Q405 380 379 383T324 387T270 387T228 384V0H63Z" />
<glyph unicode="s" horiz-adv-x="487" d="M215 -15Q161 -15 122 -3T51 21V163Q69 150 95 136T154 111T224 101Q256 101 267 111T278 136Q278 150 263 159T224 176T173 188Q150 192 128 202T87 231T58 277T47 342Q47 393 66 426T118 480T188 510T260 518Q326 516
363 504T429 473L430 348Q397 366 363 383T284 400Q247 400 233 389T219 361Q219 344 229 335T257 320T295 308Q320 302 347 294T397 270T434 226T449 152Q448 89 416 53T330 1T215 -15Z" />
<glyph unicode="t" horiz-adv-x="423" d="M281 -22Q186 -22 141 21T96 143V383H25V507H96V646H270V507H378V383H270V161Q270 139 281 128T315 117Q329 117 347 123T378 140V0Q354 -13 329 -17T281 -22Z" />
<glyph unicode="u" horiz-adv-x="606" d="M308 -15Q236 -15 181 6T95 74T63 195V507H228V207Q228 165 247 144T309 123Q351 123 370 144T389 207V507H543V195Q543 85 480 35T308 -15Z" />
<glyph unicode="v" horiz-adv-x="632" d="M233 0L22 507H201L349 127H308L434 507H610L399 0H233Z" />
<glyph unicode="w" horiz-adv-x="833" d="M193 0L22 507H201L308 107L255 105L357 507H476L575 117H532L635 507H811L642 0H494L401 303L429 301L340 0H193Z" />
<glyph unicode="x" horiz-adv-x="607" d="M324 198L192 0H18L251 302L324 198ZM579 0H384L23 507H217L579 0ZM278 303L415 507H588L351 198L278 303Z" />
<glyph unicode="y" horiz-adv-x="605" d="M185 -196Q158 -196 132 -191T85 -177V-44Q104 -50 118 -53T148 -56Q171 -56 189 -46T219 -9T236 66L240 -30L22 507H211L316 167H301L404 507H582L387 1Q359 -71 327 -114T259 -177T185 -196Z" />
<glyph unicode="z" horiz-adv-x="500" d="M45 0V130L311 418L325 385H50V507H455V380L213 88L207 131H455V0H45Z" />
<glyph unicode="{" horiz-adv-x="396" d="M330 -109Q242 -109 193 -89T124 -33T104 48V184Q104 207 92 219T67 236T52 242V348Q54 348 67 353T92 370T104 405V541Q104 587 124 622T193 678T330 699H357V553H337Q313 552 302 543T288 518T285 485V400Q285 354 257
329T195 295Q229 286 257 261T285 189V105Q285 86 288 71T302 47T337 37H357V-109H330Z" />
<glyph unicode="|" horiz-adv-x="484" d="M185 -99V667H308V-99H185Z" />
<glyph unicode="}" horiz-adv-x="389" d="M49 -109V37H68Q93 37 104 46T118 71T121 105V189Q121 236 149 261T210 295Q178 304 150 329T121 400V485Q121 503 118 518T104 542T68 553H49V699H75Q163 699 212 679T282 623T302 541V405Q302 382 314 370T339 353T354
348V242Q352 241 339 237T314 220T302 184V48Q302 3 282 -32T213 -88T75 -109H49Z" />
<glyph unicode="~" horiz-adv-x="520" d="M98 224V311Q124 341 150 346T205 343T260 321T315 298T370 294T422 330V244Q397 213 370 208T316 211T261 234T205 256T151 260T98 224Z" />
<glyph unicode="&#xa0;" horiz-adv-x="273" />
<glyph unicode="&#xa1;" horiz-adv-x="421" d="M135 -168L155 311H273L293 -168H135ZM142 378V499H286V378H142Z" />
<glyph unicode="&#xa2;" horiz-adv-x="504" d="M237 561V696H359V561H237ZM237 0V132H359V0H237ZM306 76Q249 76 200 93T114 144T55 225T34 335Q34 402 53 454T108 541T193 594T304 612Q347 612 391 604T468 579V439Q433 455 400 466T332 478Q274 478 236 450T198
356Q198 286 230 250T340 213Q377 213 411 227T470 255V117Q435 97 397 87T306 76Z" />
<glyph unicode="&#xa3;" horiz-adv-x="562" d="M128 484Q128 530 148 573T215 646T340 675Q387 675 430 660T506 625V478Q473 505 442 519T376 534Q349 534 328 526T294 500T281 459V145Q323 129 358 125T429 130T506 165V31Q470 0 432 -8T356 -10T279 6T201 22T124
22T49 -15V123Q73 140 92 142T128 149V484ZM49 272V393H427V272H49Z" />
<glyph unicode="&#xa4;" horiz-adv-x="492" d="M245 156Q195 156 153 180T87 247T62 339Q62 390 86 431T153 497T245 522Q296 522 337 498T403 432T428 339Q428 289 404 247T338 181T245 156ZM244 262Q275 262 295 283T316 339Q316 374 295 395T244 417Q213 417
193 396T172 339Q172 305 192 284T244 262ZM109 272L180 201L106 129L37 198L109 272ZM386 547L455 478L383 404L312 475L386 547ZM180 475L109 404L37 478L106 547L180 475ZM455 198L386 129L312 201L383 272L455 198Z" />
<glyph unicode="&#xa5;" horiz-adv-x="710" d="M281 0V110H144V202H281V281H144V373H220L18 667H209L359 408L509 667H700L498 373H574V281H438V202H574V110H438V0H281Z" />
<glyph unicode="&#xa6;" horiz-adv-x="484" d="M308 217V-99H185V217H308ZM185 350V667H308V350H185Z" />
<glyph unicode="&#xa7;" horiz-adv-x="599" d="M260 -8Q202 -8 153 9T65 52V178Q103 145 145 127T240 108Q254 108 269 109T299 115T323 128T333 149Q333 163 314 172T264 192T195 214Q160 226 130 243T80 284T61 347Q61 373 74 391T108 420T151 437T192 444Q180
446 165 458T137 489T125 530Q125 571 143 599T192 644T261 668T340 676Q387 676 430 663T513 628V515Q470 539 436 548T363 558Q349 558 327 555T289 543T272 515Q272 506 283 498T316 481T367 463Q406 451 446 433T514 387T541 315Q541 291 529 276T499 251T462
238T431 231Q455 218 466 189T478 133Q478 67 420 30T260 -8ZM354 285Q373 286 384 292T395 309Q395 318 385 326T356 343T313 357Q296 362 280 366T253 375Q233 375 220 369T207 350Q207 346 211 341T228 331T261 318Q279 311 302 303T354 285Z" />
<glyph unicode="&#xa8;" horiz-adv-x="439" d="M246 557V662H385V557H246ZM54 557V662H194V557H54Z" />
<glyph unicode="&#xa9;" horiz-adv-x="778" d="M389 -8Q319 -8 257 18T148 92T75 201T48 333Q48 404 74 466T148 575T257 648T389 675Q460 675 522 649T631 575T704 466T731 333Q731 263 705 201T631 92T522 19T389 -8ZM394 134Q361 134 329 143T270 174T227 235T211
334Q211 394 227 433T269 494T328 524T394 533Q426 533 457 526T519 507V427Q488 441 460 447T400 454Q373 454 351 444T316 408T303 334Q303 286 316 260T351 224T400 214Q431 214 459 220T519 241V161Q488 148 457 141T394 134ZM389 51Q448 51 499 73T589 134T650
224T672 333Q672 392 650 443T589 533T499 594T389 616Q331 616 280 594T190 533T129 443T107 333Q107 275 129 224T190 134T280 73T389 51Z" />
<glyph unicode="&#xaa;" horiz-adv-x="405" d="M195 380Q166 380 143 385T103 401T76 431T67 475Q67 512 89 536T167 560Q194 560 209 556T231 547Q231 575 221 590T187 605Q165 605 140 601T94 588V655Q116 664 143 669T193 675Q260 675 294 645T329 555V473Q329
445 321 427T296 399T255 384T195 380ZM198 444Q215 444 224 450T233 469V503Q229 504 221 506T201 509Q191 509 183 506T169 495T163 477Q163 467 167 460T179 448T198 444Z" />
<glyph unicode="&#xab;" horiz-adv-x="642" d="M437 64L268 255L437 445H592L410 255L592 64H437ZM203 64L34 255L203 445H357L176 255L357 64H203Z" />
<glyph unicode="&#xac;" horiz-adv-x="633" d="M439 146V232H97V332H536V146H439Z" />
<glyph unicode="&#xad;" horiz-adv-x="600" d="M79 253V363H384V253H79Z" />
<glyph unicode="&#xae;" horiz-adv-x="778" d="M390 -8Q320 -8 258 18T149 92T76 201T49 333Q49 404 75 466T149 575T258 648T390 675Q461 675 523 649T632 575T705 466T732 333Q732 263 706 201T632 92T523 19T390 -8ZM390 51Q449 51 500 73T590 134T651 224T673
333Q673 392 651 443T590 533T500 594T390 616Q332 616 281 594T191 533T130 443T108 333Q108 275 130 224T191 134T281 73T390 51ZM246 139V528H399Q467 528 509 497T552 404Q552 378 546 359T528 325T502 302T472 288L567 139H465L388 273H339V139H246ZM339 344H404Q421
344 433 350T453 369T460 398Q460 414 453 426T434 446T404 453H339V344Z" />
<glyph unicode="&#xaf;" horiz-adv-x="395" d="M55 547V650H340V547H55Z" />
<glyph unicode="&#xb0;" horiz-adv-x="387" d="M191 448Q139 448 111 476T82 558Q82 612 110 640T191 669Q244 669 272 641T300 558Q300 505 272 477T191 448ZM191 503Q218 503 230 516T242 559Q242 589 230 601T191 614Q164 614 152 602T139 559Q139 529 151
516T191 503Z" />
<glyph unicode="&#xb1;" horiz-adv-x="585" d="M244 168V296H115V400H244V530H348V400H476V296H348V168H244ZM115 10V108H476V10H115Z" />
<glyph unicode="&#xb2;" horiz-adv-x="337" d="M45 463V530Q64 545 88 561T135 597T171 638T185 684Q185 711 169 723T134 736Q104 736 85 726T47 703V792Q69 806 97 816T157 827Q212 827 244 811T289 768T302 714Q302 682 285 652T237 598T167 557L157 568H304V463H45Z" />
<glyph unicode="&#xb3;" horiz-adv-x="333" d="M149 458Q120 458 93 467T42 487V572Q67 557 86 548T128 538Q152 538 167 548T183 578Q183 594 171 606T127 619H88V684H128Q147 684 157 693T167 717Q167 731 152 738T119 745Q101 745 84 740T49 726V801Q70 812
94 819T145 826Q175 826 207 817T262 786T285 728Q285 709 276 694T255 670T231 657Q250 651 266 639T291 607T301 563Q301 533 287 513T250 481T201 464T149 458Z" />
<glyph unicode="&#xb4;" horiz-adv-x="267" d="M63 549L107 674H268L151 549H63Z" />
<glyph unicode="&#xb5;" horiz-adv-x="641" d="M99 -210V499H256V178Q256 165 261 150T285 125T347 114Q366 114 381 116T410 122V499H566V51Q564 50 545 41T492 21T416 2T324 -7Q310 -7 297 -5T274 -1T256 3V-210H99Z" />
<glyph unicode="&#xb6;" horiz-adv-x="516" d="M343 0V192H305Q175 192 107 253T39 431Q39 545 107 606T305 667H466V0H343Z" />
<glyph unicode="&#xb7;" horiz-adv-x="354" d="M107 209V338H241V209H107Z" />
<glyph unicode="&#xb8;" horiz-adv-x="281" d="M44 -136L135 -5H240L191 -136H44Z" />
<glyph unicode="&#xb9;" horiz-adv-x="248" d="M78 462V739L94 709L22 669V775L96 821H190V462H78Z" />
<glyph unicode="&#xba;" horiz-adv-x="423" d="M209 389Q168 389 138 404T91 452T74 532Q74 581 91 613T138 660T209 676Q250 676 279 661T325 613T342 532Q342 484 326 452T280 405T209 389ZM209 454Q231 454 242 473T254 532Q254 573 243 592T209 611Q185 611
174 592T162 532Q162 492 173 473T209 454Z" />
<glyph unicode="&#xbb;" horiz-adv-x="653" d="M288 64L470 255L288 445H443L612 255L443 64H288ZM54 64L236 255L54 445H209L378 255L209 64H54Z" />
<glyph unicode="&#xbc;" horiz-adv-x="734" d="M78 312V589L94 559L22 519V625L96 671H190V312H78ZM62 -22L469 685H585L178 -22H62ZM536 0V82H382V160L541 359H640V166H684V82H640V0H536ZM474 166H536V271L558 273L474 166Z" />
<glyph unicode="&#xbd;" horiz-adv-x="748" d="M78 312V589L94 559L22 519V625L96 671H190V312H78ZM60 -22L467 685H583L176 -22H60ZM438 0V67Q457 82 481 98T528 134T564 175T578 221Q578 248 562 260T527 273Q497 273 478 263T440 240V329Q462 343 490 353T550
364Q605 364 637 348T682 305T695 251Q695 219 678 189T630 135T560 94L550 105H697V0H438Z" />
<glyph unicode="&#xbe;" horiz-adv-x="792" d="M149 319Q120 319 93 328T42 348V433Q67 418 86 409T128 399Q152 399 167 409T183 439Q183 455 171 467T127 480H88V545H128Q147 545 157 554T167 578Q167 592 152 599T119 606Q101 606 84 601T49 587V662Q70 673
94 680T145 687Q175 687 207 678T262 647T285 589Q285 570 276 555T255 531T231 518Q250 512 266 500T291 468T301 424Q301 394 287 374T250 342T201 325T149 319ZM115 -22L522 685H638L231 -22H115ZM594 0V82H440V160L599 359H698V166H742V82H698V0H594ZM532 166H594V271L616
273L532 166Z" />
<glyph unicode="&#xbf;" horiz-adv-x="519" d="M284 -176Q232 -176 193 -161T129 -120T91 -58T79 17Q79 60 94 88T131 137T175 179T212 226T227 295V311H354V292Q354 237 339 202T303 142T259 99T222 62T207 16Q207 -16 221 -32T257 -53T304 -59Q342 -59 382 -46T452
-10V-130Q436 -141 410 -151T352 -169T284 -176ZM219 378V499H363V378H219Z" />
<glyph unicode="&#xc0;" horiz-adv-x="702" d="M12 0L261 667H460L690 0H504L295 636L388 644L180 0H12ZM159 131L193 260H491L508 131H159ZM311 715L212 826H356L400 715H311Z" />
<glyph unicode="&#xc1;" horiz-adv-x="702" d="M12 0L261 667H460L690 0H504L295 636L388 644L180 0H12ZM159 131L193 260H491L508 131H159ZM308 717L340 829H514L388 717H308Z" />
<glyph unicode="&#xc2;" horiz-adv-x="702" d="M12 0L261 667H460L690 0H504L295 636L388 644L180 0H12ZM159 131L193 260H491L508 131H159ZM195 708L284 830H419L507 708H397L351 764L306 708H195Z" />
<glyph unicode="&#xc3;" horiz-adv-x="702" d="M12 0L261 667H460L690 0H504L295 636L388 644L180 0H12ZM159 131L193 260H491L508 131H159ZM240 718H166Q164 757 179 790T222 844T287 865Q313 865 334 855T372 833T407 810T442 800Q460 800 469 814T478 861H554Q555
815 539 783T495 733T436 716Q402 716 379 726T340 748T310 771T280 781Q257 781 248 760T240 718Z" />
<glyph unicode="&#xc4;" horiz-adv-x="702" d="M12 0L261 667H460L690 0H504L295 636L388 644L180 0H12ZM159 131L193 260H491L508 131H159ZM373 699V804H512V699H373ZM181 699V804H321V699H181Z" />
<glyph unicode="&#xc5;" horiz-adv-x="702" d="M12 0L261 667H460L690 0H504L295 636L388 644L180 0H12ZM159 131L193 260H491L508 131H159ZM349 671Q291 671 259 695T226 766Q226 812 258 837T349 862Q408 862 440 837T472 766Q472 720 440 696T349 671ZM349
733Q374 733 384 740T395 766Q395 785 385 792T349 800Q324 800 314 793T303 766Q303 747 313 740T349 733Z" />
<glyph unicode="&#xc6;" horiz-adv-x="1044" d="M525 614L598 601L213 0H12L479 667H981V529H706V407H942V268H706V139H981V0H525V614ZM598 133H200L250 260H611L598 133Z" />
<glyph unicode="&#xc7;" horiz-adv-x="631" d="M367 -14Q205 -14 120 70T34 333Q34 506 115 594T367 683Q420 683 474 670T581 634V478Q527 514 479 529T392 545Q338 545 300 526T242 460T221 332Q221 253 242 207T302 143T400 124Q434 124 480 139T581 189V33Q554
19 518 9T442 -8T367 -14ZM220 -124L311 7H416L367 -124H220Z" />
<glyph unicode="&#xc8;" horiz-adv-x="595" d="M68 0V667H533V529H250V403H494V265H249V138H533V0H68ZM263 715L164 826H308L352 715H263Z" />
<glyph unicode="&#xc9;" horiz-adv-x="595" d="M68 0V667H533V529H250V403H494V265H249V138H533V0H68ZM260 717L292 829H466L340 717H260Z" />
<glyph unicode="&#xca;" horiz-adv-x="595" d="M68 0V667H533V529H250V403H494V265H249V138H533V0H68ZM147 708L236 830H371L459 708H349L303 764L258 708H147Z" />
<glyph unicode="&#xcb;" horiz-adv-x="595" d="M68 0V667H533V529H250V403H494V265H249V138H533V0H68ZM325 699V804H464V699H325ZM133 699V804H273V699H133Z" />
<glyph unicode="&#xcc;" horiz-adv-x="318" d="M68 0V667H250V0H68ZM125 715L26 826H170L214 715H125Z" />
<glyph unicode="&#xcd;" horiz-adv-x="318" d="M68 0V667H250V0H68ZM122 717L154 829H328L202 717H122Z" />
<glyph unicode="&#xce;" horiz-adv-x="318" d="M68 0V667H250V0H68ZM9 708L98 830H233L321 708H211L165 764L120 708H9Z" />
<glyph unicode="&#xcf;" horiz-adv-x="318" d="M68 0V667H250V0H68ZM188 699V804H327V699H188ZM-4 699V804H136V699H-4Z" />
<glyph unicode="&#xd0;" horiz-adv-x="721" d="M68 0V667H348Q521 667 601 582T682 333Q682 170 602 85T348 0H68ZM249 138H326Q409 138 452 184T496 333Q496 436 453 482T326 529H249V138ZM261 284V384H573V284H261Z" />
<glyph unicode="&#xd1;" horiz-adv-x="725" d="M68 0V667H218L546 232L491 116V667H657V0H525L195 424L233 506V0H68ZM252 718H178Q176 757 191 790T234 844T299 865Q325 865 346 855T384 833T419 810T454 800Q472 800 481 814T490 861H566Q567 815 551 783T507
733T448 716Q414 716 391 726T352 748T322 771T292 781Q269 781 260 760T252 718Z" />
<glyph unicode="&#xd2;" horiz-adv-x="740" d="M370 -14Q271 -14 197 23T81 137T39 333Q39 505 126 593T370 681Q469 681 543 644T659 531T701 334Q701 162 614 74T370 -14ZM370 132Q415 132 447 151T496 214T514 335Q514 410 497 454T447 516T370 535Q325 535
293 516T244 452T226 332Q226 257 243 214T293 151T370 132ZM331 741L232 852H376L420 741H331Z" />
<glyph unicode="&#xd3;" horiz-adv-x="740" d="M370 -14Q271 -14 197 23T81 137T39 333Q39 505 126 593T370 681Q469 681 543 644T659 531T701 334Q701 162 614 74T370 -14ZM370 132Q415 132 447 151T496 214T514 335Q514 410 497 454T447 516T370 535Q325 535
293 516T244 452T226 332Q226 257 243 214T293 151T370 132ZM328 742L360 854H534L408 742H328Z" />
<glyph unicode="&#xd4;" horiz-adv-x="740" d="M370 -14Q271 -14 197 23T81 137T39 333Q39 505 126 593T370 681Q469 681 543 644T659 531T701 334Q701 162 614 74T370 -14ZM370 132Q415 132 447 151T496 214T514 335Q514 410 497 454T447 516T370 535Q325 535
293 516T244 452T226 332Q226 257 243 214T293 151T370 132ZM215 733L304 855H439L527 733H417L371 789L326 733H215Z" />
<glyph unicode="&#xd5;" horiz-adv-x="740" d="M370 -14Q271 -14 197 23T81 137T39 333Q39 505 126 593T370 681Q469 681 543 644T659 531T701 334Q701 162 614 74T370 -14ZM370 132Q415 132 447 151T496 214T514 335Q514 410 497 454T447 516T370 535Q325 535
293 516T244 452T226 332Q226 257 243 214T293 151T370 132ZM260 743H186Q184 782 199 815T242 869T307 890Q333 890 354 880T392 858T427 835T462 825Q480 825 489 839T498 886H574Q575 840 559 808T515 758T456 741Q422 741 399 751T360 773T330 796T300 806Q277
806 268 785T260 743Z" />
<glyph unicode="&#xd6;" horiz-adv-x="740" d="M370 -14Q271 -14 197 23T81 137T39 333Q39 505 126 593T370 681Q469 681 543 644T659 531T701 334Q701 162 614 74T370 -14ZM370 132Q415 132 447 151T496 214T514 335Q514 410 497 454T447 516T370 535Q325 535
293 516T244 452T226 332Q226 257 243 214T293 151T370 132ZM394 724V829H533V724H394ZM202 724V829H342V724H202Z" />
<glyph unicode="&#xd7;" horiz-adv-x="526" d="M73 75L212 256L74 437H177L264 324L352 437H455L317 256L455 75H352L264 188L177 75H73Z" />
<glyph unicode="&#xd8;" horiz-adv-x="740" d="M17 0L607 666H723L132 0H17ZM370 -14Q271 -14 197 23T81 137T39 333Q39 505 126 593T370 681Q469 681 543 644T659 531T701 334Q701 162 614 74T370 -14ZM370 132Q415 132 447 151T496 214T514 335Q514 410 497
454T447 516T370 535Q325 535 293 516T244 452T226 332Q226 257 243 214T293 151T370 132Z" />
<glyph unicode="&#xd9;" horiz-adv-x="733" d="M384 -23Q225 -23 147 41T68 244V667H257V254Q257 183 284 149T375 115Q431 115 462 149T493 254V667H665V244Q665 151 629 92T530 5T384 -23ZM327 724L228 835H372L416 724H327Z" />
<glyph unicode="&#xda;" horiz-adv-x="733" d="M384 -23Q225 -23 147 41T68 244V667H257V254Q257 183 284 149T375 115Q431 115 462 149T493 254V667H665V244Q665 151 629 92T530 5T384 -23ZM323 725L355 837H529L403 725H323Z" />
<glyph unicode="&#xdb;" horiz-adv-x="733" d="M384 -23Q225 -23 147 41T68 244V667H257V254Q257 183 284 149T375 115Q431 115 462 149T493 254V667H665V244Q665 151 629 92T530 5T384 -23ZM210 716L299 838H434L522 716H412L366 772L321 716H210Z" />
<glyph unicode="&#xdc;" horiz-adv-x="733" d="M384 -23Q225 -23 147 41T68 244V667H257V254Q257 183 284 149T375 115Q431 115 462 149T493 254V667H665V244Q665 151 629 92T530 5T384 -23ZM389 707V812H528V707H389ZM197 707V812H337V707H197Z" />
<glyph unicode="&#xdd;" horiz-adv-x="712" d="M277 0V285L23 667H246L432 347L346 346L511 667H688L432 240L458 333V0H277ZM342 717L374 829H548L422 717H342Z" />
<glyph unicode="&#xde;" horiz-adv-x="641" d="M86 0V667H243V568H336Q456 568 521 508T587 338Q587 228 522 168T336 107H243V0H86ZM243 238H320Q354 238 375 246T408 270T426 303T431 338Q431 355 426 372T409 405T375 429T320 438H243V238Z" />
<glyph unicode="&#xdf;" horiz-adv-x="645" d="M63 0V439Q63 514 92 573T179 667T318 701Q400 701 460 680T552 621T585 539Q585 503 572 478T538 434T497 404T461 388Q494 378 529 357T588 296T612 191Q612 133 588 87T518 13T400 -16Q373 -16 343 -13T279 1V135Q305
120 329 114T372 107Q406 107 425 130T445 197Q445 234 428 254T385 283T328 293V425Q368 425 391 442T414 496Q414 517 404 532T374 556T329 565Q284 565 257 534T229 442V0H63Z" />
<glyph unicode="&#xe0;" horiz-adv-x="575" d="M263 -15Q214 -15 173 -7T100 22T52 77T35 162Q35 207 53 241T112 295T214 315Q247 315 279 308T337 288T377 260L382 186Q362 197 337 203T285 210Q239 210 219 198T198 156Q198 141 207 128T232 107T266 99Q314
99 331 105T349 130V306Q349 350 321 369T240 389Q195 389 150 372T79 334V479Q103 495 158 509T286 523Q307 523 336 520T396 506T453 476T496 424T512 343L511 105Q511 64 483 37T399 -2T263 -15ZM241 574L124 699H286L330 574H241Z" />
<glyph unicode="&#xe1;" horiz-adv-x="575" d="M263 -15Q214 -15 173 -7T100 22T52 77T35 162Q35 207 53 241T112 295T214 315Q247 315 279 308T337 288T377 260L382 186Q362 197 337 203T285 210Q239 210 219 198T198 156Q198 141 207 128T232 107T266 99Q314
99 331 105T349 130V306Q349 350 321 369T240 389Q195 389 150 372T79 334V479Q103 495 158 509T286 523Q307 523 336 520T396 506T453 476T496 424T512 343L511 105Q511 64 483 37T399 -2T263 -15ZM231 574L275 699H436L319 574H231Z" />
<glyph unicode="&#xe2;" horiz-adv-x="575" d="M263 -15Q214 -15 173 -7T100 22T52 77T35 162Q35 207 53 241T112 295T214 315Q247 315 279 308T337 288T377 260L382 186Q362 197 337 203T285 210Q239 210 219 198T198 156Q198 141 207 128T232 107T266 99Q314
99 331 105T349 130V306Q349 350 321 369T240 389Q195 389 150 372T79 334V479Q103 495 158 509T286 523Q307 523 336 520T396 506T453 476T496 424T512 343L511 105Q511 64 483 37T399 -2T263 -15ZM135 581L224 703H359L447 581H337L291 637L246 581H135Z" />
<glyph unicode="&#xe3;" horiz-adv-x="575" d="M263 -15Q214 -15 173 -7T100 22T52 77T35 162Q35 207 53 241T112 295T214 315Q247 315 279 308T337 288T377 260L382 186Q362 197 337 203T285 210Q239 210 219 198T198 156Q198 141 207 128T232 107T266 99Q314
99 331 105T349 130V306Q349 350 321 369T240 389Q195 389 150 372T79 334V479Q103 495 158 509T286 523Q307 523 336 520T396 506T453 476T496 424T512 343L511 105Q511 64 483 37T399 -2T263 -15ZM171 570H97Q95 609 110 642T153 696T218 717Q244 717 265 707T303
685T338 662T373 652Q391 652 400 666T409 713H485Q486 667 470 635T426 585T367 568Q333 568 310 578T271 600T241 623T211 633Q188 633 179 612T171 570Z" />
<glyph unicode="&#xe4;" horiz-adv-x="575" d="M263 -15Q214 -15 173 -7T100 22T52 77T35 162Q35 207 53 241T112 295T214 315Q247 315 279 308T337 288T377 260L382 186Q362 197 337 203T285 210Q239 210 219 198T198 156Q198 141 207 128T232 107T266 99Q314
99 331 105T349 130V306Q349 350 321 369T240 389Q195 389 150 372T79 334V479Q103 495 158 509T286 523Q307 523 336 520T396 506T453 476T496 424T512 343L511 105Q511 64 483 37T399 -2T263 -15ZM318 582V687H457V582H318ZM126 582V687H266V582H126Z" />
<glyph unicode="&#xe5;" horiz-adv-x="575" d="M263 -15Q214 -15 173 -7T100 22T52 77T35 162Q35 207 53 241T112 295T214 315Q247 315 279 308T337 288T377 260L382 186Q362 197 337 203T285 210Q239 210 219 198T198 156Q198 141 207 128T232 107T266 99Q314
99 331 105T349 130V306Q349 350 321 369T240 389Q195 389 150 372T79 334V479Q103 495 158 509T286 523Q307 523 336 520T396 506T453 476T496 424T512 343L511 105Q511 64 483 37T399 -2T263 -15ZM282 560Q224 560 192 584T159 655Q159 701 191 726T282 751Q341
751 373 726T405 655Q405 609 373 585T282 560ZM282 622Q307 622 317 629T328 655Q328 674 318 681T282 689Q257 689 247 682T236 655Q236 636 246 629T282 622Z" />
<glyph unicode="&#xe6;" horiz-adv-x="880" d="M436 43Q402 20 353 -1T240 -23Q185 -23 138 -7T63 48T35 155Q35 199 54 235T114 293T218 315Q249 315 280 308T337 288T377 261L382 186Q362 197 337 203T285 210Q238 210 218 194T198 148Q198 133 207 120T232
99T272 91Q292 91 314 93T356 103T387 122L436 43ZM349 191V304Q349 347 321 366T240 386Q195 386 150 370T79 331V479Q103 495 158 509T286 523Q307 523 336 520T396 506T453 476T496 424T512 343L511 212Q511 161 544 137T652 113Q692 113 732 128T795 158V18Q760
-2 715 -12T610 -23Q532 -23 474 6T382 85T349 191ZM349 245Q349 376 416 449T609 522Q693 522 745 486T822 381T846 209H464L445 310H707L687 256Q685 335 666 367T601 399Q578 399 558 386T525 344T512 264L349 245Z" />
<glyph unicode="&#xe7;" horiz-adv-x="504" d="M306 -14Q249 -14 200 3T114 54T55 135T34 245Q34 312 53 364T108 451T193 504T304 522Q347 522 391 514T468 489V349Q433 366 400 377T332 388Q274 388 236 360T198 266Q198 196 230 160T340 123Q377 123 411 137T470
165V27Q435 7 397 -3T306 -14ZM161 -136L252 -5H357L308 -136H161Z" />
<glyph unicode="&#xe8;" horiz-adv-x="565" d="M297 -15Q219 -15 160 16T67 106T34 245Q34 378 101 452T294 526Q378 526 430 490T507 383T531 209H149L129 310H391L371 256Q370 337 351 369T286 402Q262 402 242 389T211 345T199 264Q199 195 231 159T339 122Q366
122 393 128T443 144T482 158V18Q447 5 403 -5T297 -15ZM248 566L131 691H293L337 566H248Z" />
<glyph unicode="&#xe9;" horiz-adv-x="565" d="M297 -15Q219 -15 160 16T67 106T34 245Q34 378 101 452T294 526Q378 526 430 490T507 383T531 209H149L129 310H391L371 256Q370 337 351 369T286 402Q262 402 242 389T211 345T199 264Q199 195 231 159T339 122Q366
122 393 128T443 144T482 158V18Q447 5 403 -5T297 -15ZM239 566L283 691H444L327 566H239Z" />
<glyph unicode="&#xea;" horiz-adv-x="565" d="M297 -15Q219 -15 160 16T67 106T34 245Q34 378 101 452T294 526Q378 526 430 490T507 383T531 209H149L129 310H391L371 256Q370 337 351 369T286 402Q262 402 242 389T211 345T199 264Q199 195 231 159T339 122Q366
122 393 128T443 144T482 158V18Q447 5 403 -5T297 -15ZM142 572L231 694H366L454 572H344L298 628L253 572H142Z" />
<glyph unicode="&#xeb;" horiz-adv-x="565" d="M297 -15Q219 -15 160 16T67 106T34 245Q34 378 101 452T294 526Q378 526 430 490T507 383T531 209H149L129 310H391L371 256Q370 337 351 369T286 402Q262 402 242 389T211 345T199 264Q199 195 231 159T339 122Q366
122 393 128T443 144T482 158V18Q447 5 403 -5T297 -15ZM325 574V679H464V574H325ZM133 574V679H273V574H133Z" />
<glyph unicode="&#xec;" horiz-adv-x="346" d="M96 0V499H253V0H96ZM134 563L42 680H153L214 563H134Z" />
<glyph unicode="&#xed;" horiz-adv-x="346" d="M96 0V499H253V0H96ZM136 557L197 674H307L216 557H136Z" />
<glyph unicode="&#xee;" horiz-adv-x="346" d="M96 0V499H253V0H96ZM37 557L151 679H198L312 557H217L175 605L132 557H37Z" />
<glyph unicode="&#xef;" horiz-adv-x="346" d="M96 0V499H253V0H96ZM35 557V662H148V557H35ZM201 557V662H315V557H201Z" />
<glyph unicode="&#xf0;" horiz-adv-x="586" d="M296 -23Q165 -23 100 43T34 251Q34 383 88 452T235 522Q296 522 331 502T388 444L392 362Q373 388 348 402T296 416Q263 416 241 397T209 341T198 251Q198 171 222 139T296 107Q330 107 350 128T379 196T388 322Q388
404 369 463T318 564T248 637T169 692V698H362Q405 671 438 631T496 539T532 429T544 303Q544 136 483 57T296 -23ZM198 542L176 632L517 692L543 609L198 542Z" />
<glyph unicode="&#xf1;" horiz-adv-x="617" d="M63 464Q81 474 113 484T184 502T263 516T336 522Q403 522 452 506T527 451T554 344V0H389V306Q389 326 384 341T368 367T340 382T298 387Q277 387 257 382T228 370V0H63V464ZM196 562H122Q120 601 135 634T178 688T243
709Q269 709 290 699T328 677T363 654T398 644Q416 644 425 658T434 705H510Q511 659 495 627T451 577T392 560Q358 560 335 570T296 592T266 615T236 625Q213 625 204 604T196 562Z" />
<glyph unicode="&#xf2;" horiz-adv-x="594" d="M296 -15Q165 -15 100 53T34 256Q34 403 100 464T296 526Q382 526 441 499T530 412T561 256Q561 122 493 54T296 -15ZM296 116Q328 116 350 131T385 177T397 256Q397 312 385 342T351 385T296 397Q263 397 241 385T209
342T198 256Q198 183 222 150T296 116ZM256 574L139 699H301L345 574H256Z" />
<glyph unicode="&#xf3;" horiz-adv-x="594" d="M296 -15Q165 -15 100 53T34 256Q34 403 100 464T296 526Q382 526 441 499T530 412T561 256Q561 122 493 54T296 -15ZM296 116Q328 116 350 131T385 177T397 256Q397 312 385 342T351 385T296 397Q263 397 241 385T209
342T198 256Q198 183 222 150T296 116ZM247 574L291 699H452L335 574H247Z" />
<glyph unicode="&#xf4;" horiz-adv-x="594" d="M296 -15Q165 -15 100 53T34 256Q34 403 100 464T296 526Q382 526 441 499T530 412T561 256Q561 122 493 54T296 -15ZM296 116Q328 116 350 131T385 177T397 256Q397 312 385 342T351 385T296 397Q263 397 241 385T209
342T198 256Q198 183 222 150T296 116ZM150 581L239 703H374L462 581H352L306 637L261 581H150Z" />
<glyph unicode="&#xf5;" horiz-adv-x="594" d="M296 -15Q165 -15 100 53T34 256Q34 403 100 464T296 526Q382 526 441 499T530 412T561 256Q561 122 493 54T296 -15ZM296 116Q328 116 350 131T385 177T397 256Q397 312 385 342T351 385T296 397Q263 397 241 385T209
342T198 256Q198 183 222 150T296 116ZM186 570H112Q110 609 125 642T168 696T233 717Q259 717 280 707T318 685T353 662T388 652Q406 652 415 666T424 713H500Q501 667 485 635T441 585T382 568Q348 568 325 578T286 600T256 623T226 633Q203 633 194 612T186
570Z" />
<glyph unicode="&#xf6;" horiz-adv-x="594" d="M296 -15Q165 -15 100 53T34 256Q34 403 100 464T296 526Q382 526 441 499T530 412T561 256Q561 122 493 54T296 -15ZM296 116Q328 116 350 131T385 177T397 256Q397 312 385 342T351 385T296 397Q263 397 241 385T209
342T198 256Q198 183 222 150T296 116ZM333 582V687H472V582H333ZM141 582V687H281V582H141Z" />
<glyph unicode="&#xf7;" horiz-adv-x="628" d="M95 207V312H536V207H95ZM257 31V142H374V31H257ZM257 379V490H374V379H257Z" />
<glyph unicode="&#xf8;" horiz-adv-x="607" d="M163 0H15L442 499H590L163 0ZM296 -15Q165 -15 100 53T34 256Q34 403 100 464T296 526Q382 526 441 499T530 412T561 256Q561 122 493 54T296 -15ZM296 116Q328 116 350 131T385 177T397 256Q397 312 385 342T351
385T296 397Q263 397 241 385T209 342T198 256Q198 183 222 150T296 116Z" />
<glyph unicode="&#xf9;" horiz-adv-x="606" d="M308 -15Q236 -15 181 6T95 74T63 195V507H228V207Q228 165 247 144T309 123Q351 123 370 144T389 207V507H543V195Q543 85 480 35T308 -15ZM270 566L153 691H315L359 566H270Z" />
<glyph unicode="&#xfa;" horiz-adv-x="606" d="M308 -15Q236 -15 181 6T95 74T63 195V507H228V207Q228 165 247 144T309 123Q351 123 370 144T389 207V507H543V195Q543 85 480 35T308 -15ZM261 566L305 691H466L349 566H261Z" />
<glyph unicode="&#xfb;" horiz-adv-x="606" d="M308 -15Q236 -15 181 6T95 74T63 195V507H228V207Q228 165 247 144T309 123Q351 123 370 144T389 207V507H543V195Q543 85 480 35T308 -15ZM164 572L253 694H388L476 572H366L320 628L275 572H164Z" />
<glyph unicode="&#xfc;" horiz-adv-x="606" d="M308 -15Q236 -15 181 6T95 74T63 195V507H228V207Q228 165 247 144T309 123Q351 123 370 144T389 207V507H543V195Q543 85 480 35T308 -15ZM347 574V679H486V574H347ZM155 574V679H295V574H155Z" />
<glyph unicode="&#xfd;" horiz-adv-x="605" d="M185 -196Q158 -196 132 -191T85 -177V-44Q104 -50 118 -53T148 -56Q171 -56 189 -46T219 -9T236 66L240 -30L22 507H211L316 167H301L404 507H582L387 1Q359 -71 327 -114T259 -177T185 -196ZM252 549L296 674H457L340
549H252Z" />
<glyph unicode="&#xfe;" horiz-adv-x="600" d="M227 -181H63V698H227V-181ZM227 125Q243 117 264 112T301 107Q333 107 355 119T389 160T402 240Q402 282 393 310T363 353T306 368Q288 368 265 364T227 349L83 461Q100 471 127 478T188 492T254 501T313 505Q389
505 445 480T534 396T567 234Q567 159 540 101T464 10T346 -23Q332 -23 305 -21T248 -9T196 28L227 125Z" />
<glyph unicode="&#xff;" horiz-adv-x="605" d="M185 -196Q158 -196 132 -191T85 -177V-44Q104 -50 118 -53T148 -56Q171 -56 189 -46T219 -9T236 66L240 -30L22 507H211L316 167H301L404 507H582L387 1Q359 -71 327 -114T259 -177T185 -196ZM338 557V662H477V557H338ZM146
557V662H286V557H146Z" />
<glyph unicode="&#x2013;" horiz-adv-x="560" d="M69 236V345H489V236H69Z" />
<glyph unicode="&#x2014;" horiz-adv-x="891" d="M79 236V345H812V236H79Z" />
<glyph unicode="&#x2018;" horiz-adv-x="294" d="M141 480L47 676H177L251 480H141Z" />
<glyph unicode="&#x2019;" horiz-adv-x="294" d="M47 480L121 676H251L157 480H47Z" />
<glyph unicode="&#x201a;" horiz-adv-x="335" d="M72 -112L146 84H276L182 -112H72Z" />
<glyph unicode="&#x201c;" horiz-adv-x="466" d="M310 480L216 676H347L421 480H310ZM142 480L48 676H178L252 480H142Z" />
<glyph unicode="&#x201d;" horiz-adv-x="465" d="M216 480L290 676H421L326 480H216ZM48 480L122 676H252L158 480H48Z" />
<glyph unicode="&#x201e;" horiz-adv-x="504" d="M240 -112L314 84H445L351 -112H240ZM72 -112L146 84H276L182 -112H72Z" />
<glyph unicode="&#x2022;" horiz-adv-x="513" d="M257 155Q210 155 171 178T108 240T85 326Q85 374 108 413T170 474T257 497Q304 497 343 475T404 413T427 327Q427 279 405 240T344 178T257 155Z" />
<glyph unicode="&#x2039;" horiz-adv-x="392" d="M200 64L31 255L200 445H355L173 255L355 64H200Z" />
<glyph unicode="&#x203a;" horiz-adv-x="407" d="M43 64L224 255L43 445H198L367 255L198 64H43Z" />
</font>
</defs>
</svg>
