<?xml version="1.0" standalone="no"?>
<!DOCTYPE svg PUBLIC "-//W3C//DTD SVG 1.1//EN" "http://www.w3.org/Graphics/SVG/1.1/DTD/svg11.dtd">
<svg xmlns="http://www.w3.org/2000/svg">
<defs >
<font id="MavenPro" horiz-adv-x="550" ><font-face
    font-family="Maven Pro Black"
    units-per-em="1000"
    panose-1="0 0 0 0 0 0 0 0 0 0"
    ascent="965"
    descent="-210"
    alphabetic="0" />
<glyph unicode=" " horiz-adv-x="270" />
<glyph unicode="!" horiz-adv-x="431" d="M158 191L136 667H309L287 191H158ZM145 0V128H300V0H145Z" />
<glyph unicode="&quot;" horiz-adv-x="439" d="M251 475L233 676H357L340 475H251ZM99 475L81 676H205L188 475H99Z" />
<glyph unicode="#" horiz-adv-x="629" d="M127 19L146 121H74V212H160L181 330H101V420H196L214 522H310L292 420H398L416 522H512L493 420H554V330H479L458 212H528V121H443L425 19H329L347 121H240L223 19H127ZM256 212H364L383 330H277L256 212Z" />
<glyph unicode="$" horiz-adv-x="586" d="M233 610V755H365V610H233ZM233 -100V45H365V-100H233ZM304 -15Q253 -15 209 -12T127 1T56 26V212Q109 171 168 153T272 135Q304 135 324 145T345 187Q345 207 323 219T263 243T177 270Q150 279 125 293T79 328T47 380T35
454Q35 501 52 543T104 616T192 666T315 684Q357 684 390 680T454 666T515 641V451Q493 471 463 489T400 519T337 534Q314 536 292 532T255 516T240 479Q240 457 256 445T300 424T364 405Q407 393 441 378T500 341T538 288T551 212Q551 145 520 94T433 14T304 -15Z"
/>
<glyph unicode="%" horiz-adv-x="848" d="M190 312Q96 312 56 358T15 496Q15 587 55 633T190 680Q285 680 325 634T365 496Q365 405 325 359T190 312ZM190 412Q203 412 214 418T232 443T239 496Q239 531 232 549T214 574T190 581Q178 581 167 574T148 549T141
496Q141 462 148 444T166 419T190 412ZM658 -14Q564 -14 524 32T483 170Q483 261 523 307T658 354Q753 354 793 308T833 170Q833 79 793 33T658 -14ZM658 86Q671 86 682 92T700 117T707 170Q707 205 700 223T682 248T658 255Q646 255 635 248T616 223T609 170Q609
136 616 118T634 93T658 86ZM158 -22L565 685H689L282 -22H158Z" />
<glyph unicode="&amp;" horiz-adv-x="704" d="M450 0L154 361Q134 387 114 422T94 496Q94 545 125 587T211 655T336 682Q404 682 453 660T528 600T555 512Q555 464 532 431T469 370T377 311L313 411Q339 425 354 438T377 463T384 490Q384 512 371 524T335 537Q313
537 299 524T284 491Q284 480 290 468T303 446T316 430L669 0H450ZM250 -15Q203 -15 164 -2T95 35T51 92T35 164Q35 199 50 234T101 300T196 356L306 273Q290 263 274 248T248 217T237 183Q237 173 238 163T245 143T262 129T294 123Q317 123 343 139T383 174L468
68Q448 45 421 26T353 -4T250 -15ZM458 223Q472 239 480 259T492 294T496 309H626Q620 273 597 225T546 136L458 223Z" />
<glyph unicode="&apos;" horiz-adv-x="285" d="M99 475L81 676H205L188 475H99Z" />
<glyph unicode="(" horiz-adv-x="358" d="M198 -113Q158 -72 121 -9T59 134T35 306Q35 398 59 478T120 621T198 724H343Q328 694 310 651T276 554T250 438T240 306Q240 237 250 175T276 58T310 -39T343 -113H198Z" />
<glyph unicode=")" horiz-adv-x="358" d="M15 -113Q30 -83 48 -40T82 57T108 173T118 305Q118 374 108 436T82 553T48 650T15 724H160Q201 683 238 620T299 478T323 305Q323 213 299 133T238 -9T160 -113H15Z" />
<glyph unicode="*" horiz-adv-x="413" d="M170 460L176 524L122 485L84 553L161 581L84 609L122 677L176 638L170 702H248L243 638L296 677L334 609L258 581L334 553L296 485L243 524L248 460H170Z" />
<glyph unicode="+" horiz-adv-x="551" d="M219 118V243H93V355H219V481H331V355H456V243H331V118H219Z" />
<glyph unicode="," horiz-adv-x="367" d="M74 -112L148 84H287L191 -112H74Z" />
<glyph unicode="-" horiz-adv-x="464" d="M79 251V368H384V251H79Z" />
<glyph unicode="." horiz-adv-x="264" d="M50 0V158H214V0H50Z" />
<glyph unicode="/" horiz-adv-x="463" d="M-14 -98L353 756H478L110 -98H-14Z" />
<glyph unicode="0" horiz-adv-x="675" d="M337 -14Q179 -14 107 72T35 334Q35 508 107 595T337 682Q497 682 568 595T640 334Q640 159 569 73T337 -14ZM337 145Q356 145 373 152T405 178T427 235T436 334Q436 394 428 431T405 487T374 514T337 522Q319 522 302
515T270 488T248 431T240 334Q240 273 248 236T270 179T301 152T337 145Z" />
<glyph unicode="1" horiz-adv-x="478" d="M168 0V476L40 410V579L199 667H368V0H168Z" />
<glyph unicode="2" horiz-adv-x="620" d="M67 0V136Q101 154 139 180T212 239T276 306T322 374T339 437Q339 476 323 497T285 525T242 533Q199 533 160 511T72 451V615Q115 641 172 661T309 682Q380 682 432 659T512 589T540 469Q540 421 523 382T477 310T413
250T342 200T274 155L238 180H554V0H67Z" />
<glyph unicode="3" horiz-adv-x="600" d="M271 -8Q217 -8 166 8T68 48V213Q118 183 165 160T264 136Q308 136 335 151T362 197Q362 228 343 248T261 269H152V413H263Q301 413 317 430T333 468Q333 493 320 505T286 523T244 528Q214 528 178 521T80 484V629Q120
650 167 663T263 676Q302 676 344 668T423 639T483 583T506 493Q506 469 497 447T473 407T440 378T402 362Q431 354 455 338T496 299T523 248T533 187Q533 127 509 89T445 30T360 1T271 -8Z" />
<glyph unicode="4" horiz-adv-x="618" d="M310 0V170H39V302L331 667H512V316H592V170H512V0H310ZM202 316H310V453L202 316Z" />
<glyph unicode="5" horiz-adv-x="612" d="M275 -14Q211 -14 155 4T73 45V228Q91 207 119 188T181 157T248 145Q271 145 293 149T333 161T361 184T372 219Q372 244 360 261T327 288T277 298Q256 298 234 294T192 282T162 269L78 363L124 668H518V498H244L216 327L93
381Q135 425 194 444T336 464Q385 464 428 450T505 408T558 338T577 237Q577 165 553 117T486 40T389 -1T275 -14Z" />
<glyph unicode="6" horiz-adv-x="643" d="M312 -14Q167 -14 101 70T35 309Q35 409 58 476T119 584T202 646T293 674T376 682Q435 682 477 673T542 652V487Q507 505 472 515T390 525Q349 525 322 516T277 489T251 448T239 397T236 340Q236 278 242 240T261 181T291
154T329 146Q346 146 359 150T383 162T399 183T405 216Q405 260 386 280T335 301Q305 301 286 291T255 257T237 190L185 253Q188 279 199 311T232 372T289 421T375 441Q497 440 552 384T608 212Q608 160 589 118T532 47T439 2T312 -14Z" />
<glyph unicode="7" horiz-adv-x="599" d="M123 0L352 530L385 486H66V667H556V561L342 0H123Z" />
<glyph unicode="8" horiz-adv-x="652" d="M326 -14Q254 -14 200 -1T109 37T54 99T35 184Q35 213 43 237T67 280T102 314T148 339Q129 348 112 361T80 391T59 431T51 482Q51 552 81 596T173 661T326 682Q418 682 479 661T570 596T601 482Q601 454 594 432T572 392T541
361T504 339Q529 329 549 314T585 280T608 237T617 184Q617 136 599 99T544 37T453 -1T326 -14ZM326 137Q346 137 360 144T384 163T399 190T404 222Q404 236 396 252T370 280T326 292Q300 292 283 281T257 253T248 222Q248 205 253 190T267 163T292 144T326 137ZM326
393Q338 393 354 400T382 421T394 458Q394 475 386 492T363 520T326 531Q304 531 289 520T266 492T258 458Q258 436 270 422T298 400T326 393Z" />
<glyph unicode="9" horiz-adv-x="646" d="M267 -14Q208 -14 166 -5T101 16V181Q136 163 171 153T253 143Q294 143 321 152T366 179T392 220T404 271T407 328Q407 390 401 428T381 487T351 514T310 522Q295 522 282 518T259 506T244 485T238 452Q238 409 258 388T309
367Q339 367 358 377T388 411T406 478L458 415Q455 389 444 357T411 296T354 247T268 227Q147 228 91 284T35 456Q35 509 54 550T109 621T195 666T310 682Q471 682 539 598T608 359Q608 259 585 192T524 84T441 22T351 -6T267 -14Z" />
<glyph unicode=":" horiz-adv-x="424" d="M137 327V465H281V327H137ZM137 35V173H281V35H137Z" />
<glyph unicode=";" horiz-adv-x="319" d="M35 -112L109 104H268L152 -112H35ZM105 307V465H269V307H105Z" />
<glyph unicode="&lt;" horiz-adv-x="668" d="M541 35L120 222V313L541 500V364L295 268L541 171V35Z" />
<glyph unicode="=" horiz-adv-x="638" d="M122 341V458H515V341H122ZM122 139V256H515V139H122Z" />
<glyph unicode="&gt;" horiz-adv-x="660" d="M116 35V171L362 268L116 364V500L537 313V222L116 35Z" />
<glyph unicode="?" horiz-adv-x="525" d="M174 192V205Q174 260 189 296T225 356T269 399T306 437T321 482Q321 514 307 528T272 546T230 550Q194 550 153 538T80 500V628Q98 641 125 651T185 668T252 675Q310 675 350 659T414 614T448 552T459 481Q459 438 444
410T407 360T363 318T326 270T311 202V192H174ZM165 0V128H320V0H165Z" />
<glyph unicode="@" horiz-adv-x="913" d="M409 -150Q371 -150 327 -139T239 -104T160 -40T103 54T81 182Q81 275 119 352T219 485T356 571T507 602Q546 602 591 591T680 556T761 493T819 401T841 275Q841 230 831 185T800 103T745 44T665 22Q640 22 622 33T594
59T578 86Q564 59 530 41T442 22Q366 22 322 56T278 151Q278 174 286 199T318 247T386 284T504 298Q517 298 529 298T555 296Q555 300 555 303T554 310Q552 326 545 337T521 354T475 361Q443 361 407 357T336 339L350 426Q379 435 415 443T484 452Q566 452 608
414T650 302Q650 265 643 228T635 150Q635 141 637 127T647 101T675 90Q694 90 717 109T759 169T777 275Q777 337 753 385T688 467T599 518T504 536Q435 536 371 508T257 431T177 317T147 179Q147 114 168 68T221 -8T290 -55T358 -79T408 -86Q472 -86 528 -73T637
-35L626 -108Q584 -127 530 -138T409 -150ZM442 118Q470 118 488 124T518 142T535 173T543 218Q533 219 524 219T504 219Q374 219 374 153Q374 138 384 131T410 121T442 118Z" />
<glyph unicode="A" horiz-adv-x="712" d="M10 0L256 667H478L702 0H497L292 642L398 651L195 0H10ZM163 117L197 257H490L509 117H163Z" />
<glyph unicode="B" horiz-adv-x="689" d="M65 0V667H374Q441 667 497 651T587 595T622 480Q622 434 596 403T534 353T467 327L444 372Q511 372 557 352T629 294T654 207Q654 136 619 90T526 22T404 0H65ZM266 150H385Q402 150 416 157T438 178T447 214Q447 230
442 241T429 260T408 272T382 276H266V150ZM265 416H380Q390 416 398 422T412 439T418 463Q418 492 403 504T370 517H265V416Z" />
<glyph unicode="C" horiz-adv-x="633" d="M367 -15Q204 -15 117 68T30 333Q30 506 112 595T367 684Q420 684 475 671T583 635V464Q528 502 481 518T395 534Q347 534 312 516T257 455T237 332Q237 255 257 212T314 152T405 135Q436 135 482 150T583 203V32Q557
18 520 8T443 -9T367 -15Z" />
<glyph unicode="D" horiz-adv-x="730" d="M65 0V667H358Q534 667 614 582T695 333Q695 170 615 85T358 0H65ZM265 150H333Q407 150 448 193T490 333Q490 430 449 473T333 517H265V150Z" />
<glyph unicode="E" horiz-adv-x="598" d="M65 0V667H538V517H266V409H499V259H265V150H538V0H65Z" />
<glyph unicode="F" horiz-adv-x="583" d="M65 0V667H538V517H265V389H499V238H265V0H65Z" />
<glyph unicode="G" horiz-adv-x="714" d="M368 -15Q271 -15 196 18T78 128T35 333Q35 458 78 535T196 648T367 684Q434 684 497 671T618 634V456Q552 492 501 512T393 533Q347 533 313 517T259 457T240 334Q240 256 260 213T312 152T382 134Q404 134 421 137T449
147V234H360V384H649V65Q584 27 513 6T368 -15Z" />
<glyph unicode="H" horiz-adv-x="728" d="M65 0V667H265V410H463V667H663V0H463V250H265V0H65Z" />
<glyph unicode="I" horiz-adv-x="331" d="M65 0V667H266V0H65Z" />
<glyph unicode="J" horiz-adv-x="489" d="M198 -15Q152 -15 110 -4T30 23V202Q67 176 94 158T146 140Q178 140 200 157T223 212V667H424V204Q424 142 405 100T353 33T281 -4T198 -15Z" />
<glyph unicode="K" horiz-adv-x="708" d="M259 195L181 302L422 667H674L259 195ZM65 0V667H266V0H65ZM418 429L693 0H446L262 302L418 429Z" />
<glyph unicode="L" horiz-adv-x="568" d="M65 0V667H266V151H533V0H65Z" />
<glyph unicode="M" horiz-adv-x="872" d="M65 0V667H267L488 374H384L611 667H807V0H607V523L638 450L431 182L217 460L255 479V0H65Z" />
<glyph unicode="N" horiz-adv-x="725" d="M65 0V667H227L539 259L478 127V667H660V0H520L207 391L247 482V0H65Z" />
<glyph unicode="O" horiz-adv-x="744" d="M372 -15Q273 -15 197 22T78 136T35 333Q35 505 125 593T372 682Q471 682 547 645T666 532T709 334Q709 162 620 74T372 -15ZM372 145Q411 145 440 162T485 221T502 335Q502 407 486 448T440 505T372 522Q333 522 304
505T259 446T242 332Q242 260 258 220T304 162T372 145Z" />
<glyph unicode="P" horiz-adv-x="686" d="M265 203V0H65V667H392Q511 667 581 614T651 445Q651 329 581 266T392 203H265ZM265 353H367Q380 353 392 357T413 372T427 396T433 430Q433 453 428 469T413 496T392 512T367 517H265V353Z" />
<glyph unicode="Q" horiz-adv-x="744" d="M372 -25Q209 -25 122 60T35 333Q35 512 117 602T372 692Q536 692 622 607T709 334Q709 155 627 65T372 -25ZM372 105Q411 105 440 124T485 192T502 335Q502 417 486 462T440 524T372 542Q333 542 304 524T259 461T242
332Q242 240 258 191T304 124T372 105ZM640 2Q660 2 673 5T708 22V-93Q692 -102 666 -107T601 -112Q573 -112 543 -106T487 -83T441 -34T415 50Q410 93 397 123T366 168T329 184Q301 184 274 171T226 127V244Q243 275 282 297T369 319Q405 319 441 304T507 247T551
120Q559 71 581 37T640 2Z" />
<glyph unicode="R" horiz-adv-x="743" d="M65 0V667H412Q531 667 601 613T671 448Q671 410 656 369T609 295T527 249L499 318L708 0H450L296 284L383 213H265V0H65ZM265 354H387Q413 354 433 372T453 439Q453 480 433 498T387 517H265V354Z" />
<glyph unicode="S" horiz-adv-x="586" d="M304 -15Q253 -15 209 -12T127 1T56 26V212Q109 171 168 153T272 135Q304 135 324 145T345 187Q345 207 323 219T263 243T177 270Q150 279 125 293T79 328T47 380T35 454Q35 501 52 543T104 616T192 666T315 684Q357 684
390 680T454 666T515 641V451Q493 471 463 489T400 519T337 534Q314 536 292 532T255 516T240 479Q240 457 256 445T300 424T364 405Q407 393 441 378T500 341T538 288T551 212Q551 145 520 94T433 14T304 -15Z" />
<glyph unicode="T" horiz-adv-x="588" d="M192 0V517H25V667H563V517H392V0H192Z" />
<glyph unicode="U" horiz-adv-x="740" d="M391 -25Q225 -25 145 37T65 239V667H275V251Q275 187 299 156T380 125Q429 125 457 156T485 251V667H675V239Q675 146 638 88T537 2T391 -25Z" />
<glyph unicode="V" horiz-adv-x="746" d="M256 0L10 667H244L415 116H351L522 667H736L472 0H256Z" />
<glyph unicode="W" horiz-adv-x="1024" d="M200 0L25 667H245L330 186H302L438 667H586L723 180H693L779 667H999L824 0H627L497 433H529L397 0H200Z" />
<glyph unicode="X" horiz-adv-x="718" d="M708 0H458L10 667H260L708 0ZM359 434L483 667H700L460 288L359 434ZM385 268L236 0H23L289 409L385 268Z" />
<glyph unicode="Y" horiz-adv-x="732" d="M280 0V281L25 667H272L453 345L356 343L514 667H707L452 231L480 333V0H280Z" />
<glyph unicode="Z" horiz-adv-x="644" d="M50 0V142L377 546L430 514H53V667H594V528L288 133L217 151H594V0H50Z" />
<glyph unicode="[" horiz-adv-x="402" d="M65 -116V696H367V536H265V45H367V-116H65Z" />
<glyph unicode="\" horiz-adv-x="430" d="M331 -98L-37 756H88L455 -98H331Z" />
<glyph unicode="]" horiz-adv-x="415" d="M65 -116V44H167V535H65V696H367V-116H65Z" />
<glyph unicode="^" horiz-adv-x="591" d="M120 468L258 690H330L471 468H359L295 587L231 468H120Z" />
<glyph unicode="_" horiz-adv-x="546" d="M0 -126V-24H546V-126H0Z" />
<glyph unicode="`" horiz-adv-x="279" d="M146 546L23 673H200L242 546H146Z" />
<glyph unicode="a" horiz-adv-x="579" d="M265 -15Q213 -15 170 -6T96 23T47 79T30 167Q30 208 48 241T105 295T209 316Q240 316 272 308T331 287T371 259L374 184Q355 194 334 199T289 204Q246 204 228 194T210 158Q210 146 217 135T237 116T265 108Q310 108
325 113T340 135V302Q340 343 313 361T235 379Q189 379 144 362T74 323V481Q97 496 153 511T285 526Q304 526 333 523T395 511T455 481T501 428T519 342L518 105Q518 66 490 39T406 -1T265 -15Z" />
<glyph unicode="b" horiz-adv-x="615" d="M307 -15Q263 -15 219 -9T139 12T82 56T60 131V686H238V407L208 463Q225 489 253 502T309 521T356 526Q466 526 525 459T585 255Q585 183 567 132T512 48T425 1T307 -15ZM307 134Q339 134 361 146T394 183T405 242Q405
300 391 330T353 372T304 384Q289 384 271 381T238 369V179Q238 163 245 153T268 139T307 134Z" />
<glyph unicode="c" horiz-adv-x="506" d="M309 -15Q249 -15 199 3T110 56T51 137T30 244Q30 309 49 361T104 449T191 505T307 525Q350 525 396 516T474 491V338Q438 355 406 367T338 379Q286 379 249 354T211 269Q211 204 242 169T348 134Q385 134 419 149T476
179V28Q441 7 403 -4T309 -15Z" />
<glyph unicode="d" horiz-adv-x="626" d="M317 -15Q248 -15 195 -1T105 44T49 128T30 258Q30 384 92 456T278 529Q291 529 315 528T367 516T418 476L386 420V716H566V151Q566 111 546 80T492 28T412 -4T317 -15ZM325 135Q354 135 370 143T386 171V370Q373 377
359 381T331 385Q294 385 267 375T226 336T212 251Q212 211 224 186T261 148T325 135Z" />
<glyph unicode="e" horiz-adv-x="568" d="M299 -15Q220 -15 159 17T64 107T30 244Q30 378 98 453T297 529Q382 529 435 493T513 385T538 204H159L135 311H382L363 249Q362 332 346 363T288 395Q269 395 251 383T222 343T211 269Q211 204 242 169T348 134Q373 134
399 141T448 156T486 169V18Q451 5 406 -5T299 -15Z" />
<glyph unicode="f" horiz-adv-x="402" d="M94 0V374H25V509H96V514Q96 561 105 596T131 657T173 697T230 719T303 726Q320 726 342 723T377 715V554Q366 568 355 576T320 585Q309 585 301 582T288 572T281 558T278 540V509H377V374H276V0H94Z" />
<glyph unicode="g" horiz-adv-x="603" d="M250 -15Q185 -10 136 17T58 98T30 238Q30 321 49 377T107 465T203 512T335 526Q405 526 453 509T527 460T553 384V0Q553 -63 533 -107T475 -179T387 -220T277 -233Q201 -233 149 -223T71 -197V-38Q86 -46 118 -57T192
-77T272 -85Q310 -85 332 -74T365 -41T375 10V95L407 76Q392 48 373 28T324 -4T250 -15ZM305 116Q328 116 344 120T375 133V341Q375 360 365 369T340 381T309 385Q275 385 253 369T221 323T210 250Q210 187 239 152T305 116Z" />
<glyph unicode="h" horiz-adv-x="627" d="M60 0V700H243V390L157 431Q198 472 258 498T383 525Q435 525 476 510T542 456T567 347V0H385V303Q385 344 364 360T302 377Q283 377 265 372T243 361L240 0H60Z" />
<glyph unicode="i" horiz-adv-x="306" d="M62 0V499H244L246 0H62ZM60 569V700H246V569H60Z" />
<glyph unicode="j" horiz-adv-x="319" d="M5 -193V-49Q25 -53 41 -49T66 -31T75 5V509H257L259 7Q259 -73 225 -116T132 -176T5 -193ZM73 579V710H259V579H73Z" />
<glyph unicode="k" horiz-adv-x="621" d="M202 271L374 509H594L317 196L202 271ZM240 0H60V700H243L240 0ZM348 358L596 0H368L217 233L348 358Z" />
<glyph unicode="l" horiz-adv-x="300" d="M240 0H60V700H240V0Z" />
<glyph unicode="m" horiz-adv-x="930" d="M556 347V0H374V303Q374 323 369 337T353 360T327 373T291 377Q272 377 259 372T242 361V0H60V465Q77 474 110 484T184 504T268 519T344 525Q410 525 457 510T530 456T556 347ZM378 425Q408 453 456 475T559 511T658 525Q724
525 771 510T844 456T870 347V0H688V303Q688 323 683 337T667 360T641 373T605 377Q586 377 573 372T556 361L378 425Z" />
<glyph unicode="n" horiz-adv-x="626" d="M60 465Q77 474 110 484T184 504T268 519T344 525Q410 525 460 510T538 456T566 347V0H384V303Q384 323 379 337T363 360T337 373T301 377Q282 377 264 372T242 361V0H60V465Z" />
<glyph unicode="o" horiz-adv-x="599" d="M298 -15Q165 -15 98 53T30 258Q30 407 97 468T298 529Q385 529 445 503T537 417T569 258Q569 121 499 53T298 -15ZM298 127Q325 127 345 140T377 183T389 258Q389 313 378 341T346 379T298 389Q270 389 250 379T220 341T210
258Q210 187 232 157T298 127Z" />
<glyph unicode="p" horiz-adv-x="614" d="M366 -15Q354 -15 325 -14T262 -1T206 38L238 94V-165H60V395Q60 428 79 453T132 495T213 520T317 529Q400 529 459 504T551 418T584 253Q584 174 558 114T483 19T366 -15ZM303 127Q336 127 358 137T392 176T404 260Q404
302 395 328T365 366T309 379Q263 379 251 371T238 350V142Q252 135 271 131T303 127Z" />
<glyph unicode="q" horiz-adv-x="615" d="M308 525Q378 525 434 511T522 465T555 374V-185H377V104L407 48Q385 14 355 1T298 -13T259 -15Q150 -15 90 51T30 246Q30 321 48 374T103 461T190 509T308 525ZM308 376Q276 376 254 363T221 325T210 259Q210 206 224
178T262 138T311 127Q326 127 345 131T377 142V333Q377 348 369 357T345 371T308 376Z" />
<glyph unicode="r" horiz-adv-x="450" d="M60 0V450Q75 465 111 482T194 513T284 526Q348 526 383 517T435 494V365Q421 369 395 372T338 377T282 379T242 377V0H60Z" />
<glyph unicode="s" horiz-adv-x="493" d="M214 -15Q160 -15 121 -3T50 20V174Q66 161 93 146T154 121T225 110Q254 110 261 118T269 137Q269 149 254 157T215 172T164 182Q142 186 121 196T82 226T55 273T45 338Q45 391 65 426T119 482T191 512T265 520Q335 517
373 506T439 474L440 339Q408 357 373 375T293 393Q256 393 246 383T235 359Q235 344 244 336T269 322T304 312Q329 306 355 299T405 275T443 231T458 154Q456 90 423 53T334 1T214 -15Z" />
<glyph unicode="t" horiz-adv-x="434" d="M289 -25Q186 -25 140 20T93 147V374H25V509H93V647H285V509H389V374H285V164Q285 145 295 136T326 127Q340 127 358 134T389 152V-1Q364 -15 339 -20T289 -25Z" />
<glyph unicode="u" horiz-adv-x="611" d="M311 -15Q238 -15 182 6T93 74T60 197V509H242V208Q242 172 258 154T312 135Q350 135 366 153T382 208V509H551V197Q551 84 486 35T311 -15Z" />
<glyph unicode="v" horiz-adv-x="644" d="M231 0L20 509H217L358 139H313L430 509H624L413 0H231Z" />
<glyph unicode="w" horiz-adv-x="840" d="M191 0L20 509H217L318 116H259L356 509H484L577 128H529L625 509H820L650 0H489L403 278H434L352 0H191Z" />
<glyph unicode="x" horiz-adv-x="620" d="M332 195L205 0H15L253 307L332 195ZM593 0H380L20 509H232L593 0ZM283 307L415 509H605L362 195L283 307Z" />
<glyph unicode="y" horiz-adv-x="616" d="M194 -197Q165 -197 136 -192T85 -176V-31Q106 -38 121 -40T151 -43Q172 -43 189 -35T218 -1T234 75L239 -33L20 509H228L322 184H307L399 509H596L404 10Q375 -65 342 -110T272 -176T194 -197Z" />
<glyph unicode="z" horiz-adv-x="508" d="M45 0V141L306 411L320 376H50V509H463V370L230 96L223 143H463V0H45Z" />
<glyph unicode="{" horiz-adv-x="400" d="M335 -109Q240 -109 188 -88T116 -31T95 50V182Q95 205 83 217T58 233T45 237V353Q45 353 57 357T82 373T95 408V540Q95 585 115 621T188 678T335 699H365V539H343Q319 539 309 529T297 504T295 473V402Q295 353 265 328T200
295Q235 288 265 263T295 188V117Q295 101 297 86T309 61T343 51H365V-109H335Z" />
<glyph unicode="|" horiz-adv-x="491" d="M185 -99V667H317V-99H185Z" />
<glyph unicode="}" horiz-adv-x="393" d="M45 -109V51H67Q91 51 101 61T113 86T115 117V188Q115 238 145 263T210 295Q176 303 146 328T115 402V473Q115 489 113 504T101 529T67 539H45V699H75Q170 699 222 678T294 621T315 540V408Q315 385 327 373T352 357T365
353V237Q365 237 353 233T328 217T315 182V50Q315 5 295 -31T222 -88T75 -109H45Z" />
<glyph unicode="~" horiz-adv-x="523" d="M98 223V314Q124 344 151 349T206 346T262 324T318 302T373 298T425 333V242Q400 212 373 207T318 210T262 232T206 254T151 258T98 223Z" />
<glyph unicode="&#xa0;" horiz-adv-x="270" />
<glyph unicode="&#xa1;" horiz-adv-x="431" d="M132 -168L154 308H283L305 -168H132ZM141 371V499H296V371H141Z" />
<glyph unicode="&#xa2;" horiz-adv-x="506" d="M235 567V708H367V567H235ZM235 0V141H367V0H235ZM309 80Q249 80 199 98T110 151T51 232T30 339Q30 404 49 456T104 544T191 600T307 620Q350 620 396 611T474 586V433Q438 450 406 462T338 474Q286 474 249 449T211
364Q211 299 242 264T348 229Q385 229 419 244T476 274V123Q441 102 403 91T309 80Z" />
<glyph unicode="&#xa3;" horiz-adv-x="563" d="M126 483Q126 529 146 573T213 646T338 675Q385 675 429 659T507 623V463Q473 492 443 506T380 521Q358 521 339 514T307 492T294 453V157Q334 139 367 136T433 145T507 183V38Q471 4 433 -5T357 -8T279 8T201 25T124
25T49 -15V135Q73 152 91 154T126 161V483ZM49 270V401H430V270H49Z" />
<glyph unicode="&#xa4;" horiz-adv-x="492" d="M244 156Q194 156 152 180T86 247T61 339Q61 390 85 431T152 497T244 522Q295 522 336 498T402 432T427 339Q427 289 403 247T337 181T244 156ZM243 269Q271 269 289 288T308 339Q308 371 290 390T243 410Q215 410
197 391T178 339Q178 308 196 289T243 269ZM107 274L182 199L108 127L35 200L107 274ZM384 549L457 476L385 402L310 477L384 549ZM182 477L107 402L35 476L108 549L182 477ZM457 200L384 127L310 199L385 274L457 200Z" />
<glyph unicode="&#xa5;" horiz-adv-x="729" d="M283 0V105H150V203H283V279H150V377H217L18 667H227L369 413L511 667H720L521 377H588V279H455V203H588V105H455V0H283Z" />
<glyph unicode="&#xa6;" horiz-adv-x="491" d="M317 217V-99H185V217H317ZM185 351V667H317V351H185Z" />
<glyph unicode="&#xa7;" horiz-adv-x="609" d="M265 -8Q206 -8 156 10T65 56V191Q106 155 148 136T242 116Q255 116 269 117T297 123T318 135T327 153Q327 166 306 174T253 192T187 214Q155 226 127 243T80 284T62 345Q62 372 76 390T112 419T157 435T200 440Q188
441 171 453T141 486T128 529Q128 573 147 602T199 647T269 669T346 676Q393 676 438 662T523 625V504Q477 530 443 539T371 549Q359 549 339 547T304 536T288 510Q288 501 300 493T333 478T378 462Q416 450 456 432T523 387T550 316Q550 292 537 277T505 253T467
241T435 236Q461 222 472 191T484 134Q484 67 425 30T265 -8ZM352 291Q371 291 380 296T390 309Q390 317 379 324T352 338T317 350Q301 355 286 359T262 367Q243 368 232 363T221 349Q221 346 225 342T239 334T262 323Q278 316 301 309T352 291Z" />
<glyph unicode="&#xa8;" horiz-adv-x="449" d="M249 556V665H399V556H249ZM50 556V665H200V556H50Z" />
<glyph unicode="&#xa9;" horiz-adv-x="778" d="M389 -8Q319 -8 257 18T148 92T75 201T48 333Q48 404 74 466T148 575T257 648T389 675Q460 675 522 649T631 575T704 466T731 333Q731 263 705 201T631 92T522 19T389 -8ZM393 134Q362 134 330 142T271 172T227 233T210
334Q210 396 226 435T270 495T330 525T393 533Q425 533 456 526T519 506V419Q487 434 459 440T399 447Q376 447 356 438T324 405T311 334Q311 288 323 264T356 230T399 221Q430 221 458 227T519 249V162Q488 149 457 142T393 134ZM389 55Q447 55 497 76T586 136T646
225T668 333Q668 391 647 441T587 530T498 590T389 612Q332 612 282 591T193 531T133 442T111 333Q111 276 132 226T192 137T281 77T389 55Z" />
<glyph unicode="&#xaa;" horiz-adv-x="407" d="M195 378Q164 378 140 383T99 401T74 431T65 474Q65 509 85 533T163 558Q189 558 203 554T225 545Q225 571 216 585T187 600Q166 600 141 596T92 583V655Q115 664 143 669T194 675Q262 675 297 644T333 554V473Q333
445 326 427T302 398T260 383T195 378ZM199 447Q214 447 220 453T227 468V499Q222 501 216 503T201 505Q193 505 186 501T175 491T171 477Q171 469 173 462T182 451T199 447Z" />
<glyph unicode="&#xab;" horiz-adv-x="658" d="M445 64L276 255L445 445H610L428 255L610 64H445ZM203 64L34 255L203 445H368L186 255L368 64H203Z" />
<glyph unicode="&#xac;" horiz-adv-x="635" d="M435 144V227H97V334H538V144H435Z" />
<glyph unicode="&#xad;" horiz-adv-x="600" d="M79 251V368H384V251H79Z" />
<glyph unicode="&#xae;" horiz-adv-x="778" d="M390 -8Q320 -8 258 18T149 92T76 201T49 333Q49 404 75 466T149 575T258 648T390 675Q461 675 523 649T632 575T705 466T732 333Q732 263 706 201T632 92T523 19T390 -8ZM390 55Q448 55 498 76T587 136T647 225T669
333Q669 391 648 441T588 530T499 590T390 612Q333 612 283 591T194 531T134 442T112 333Q112 276 133 226T193 137T282 77T390 55ZM243 139V528H397Q466 528 510 496T554 402Q554 378 548 359T532 325T507 300T475 285L569 139H457L385 269H344V139H243ZM344 345H403Q416
345 427 351T446 368T453 395Q453 411 446 422T428 440T403 447H344V345Z" />
<glyph unicode="&#xaf;" horiz-adv-x="394" d="M50 542V654H344V542H50Z" />
<glyph unicode="&#xb0;" horiz-adv-x="387" d="M191 448Q139 448 111 476T82 558Q82 612 110 640T191 669Q244 669 272 641T300 558Q300 505 272 477T191 448ZM191 506Q216 506 227 518T238 559Q238 587 227 599T191 611Q166 611 155 599T143 559Q143 531 154
519T191 506Z" />
<glyph unicode="&#xb1;" horiz-adv-x="585" d="M241 172V297H115V409H241V535H353V409H478V297H353V172H241ZM115 6V111H478V6H115Z" />
<glyph unicode="&#xb2;" horiz-adv-x="339" d="M43 463V536Q62 550 86 565T132 598T168 636T182 679Q182 707 166 719T133 731Q102 731 83 721T45 697V791Q68 805 97 816T157 827Q215 827 247 810T293 767T307 712Q307 681 291 653T244 603T174 566L164 576H309V463H43Z" />
<glyph unicode="&#xb3;" horiz-adv-x="335" d="M149 458Q120 458 93 467T40 488V577Q67 561 85 551T125 541Q149 541 163 551T178 578Q178 592 168 605T124 618H85V684H125Q145 684 153 693T162 714Q162 728 147 734T115 741Q99 741 82 736T47 722V800Q68 811
93 818T145 826Q173 826 206 818T264 788T289 727Q289 710 281 695T260 670T233 657Q254 651 270 638T295 605T304 563Q304 531 289 511T249 479T199 463T149 458Z" />
<glyph unicode="&#xb4;" horiz-adv-x="273" d="M63 546L105 673H282L159 546H63Z" />
<glyph unicode="&#xb5;" horiz-adv-x="647" d="M99 -210V499H271V178Q271 167 275 154T298 132T355 123Q370 123 382 124T405 129V499H577V53Q576 52 556 43T503 23T425 2T329 -7Q319 -7 309 -7T290 -5T271 -2V-210H99Z" />
<glyph unicode="&#xb6;" horiz-adv-x="529" d="M350 0V181H311Q179 181 109 244T39 425Q39 542 109 604T311 667H484V0H350Z" />
<glyph unicode="&#xb7;" horiz-adv-x="362" d="M105 205V343H249V205H105Z" />
<glyph unicode="&#xb8;" horiz-adv-x="286" d="M42 -139L135 -5H248L201 -139H42Z" />
<glyph unicode="&#xb9;" horiz-adv-x="250" d="M75 462V732L91 704L17 663V774L92 821H195V462H75Z" />
<glyph unicode="&#xba;" horiz-adv-x="424" d="M209 389Q166 389 136 405T90 454T74 532Q74 579 90 611T136 659T209 676Q252 676 281 660T327 611T343 532Q343 486 327 454T282 406T209 389ZM209 459Q227 459 237 477T247 532Q247 570 237 588T209 606Q190 606
180 588T170 532Q170 495 180 477T209 459Z" />
<glyph unicode="&#xbb;" horiz-adv-x="671" d="M294 64L476 255L294 445H459L628 255L459 64H294ZM52 64L234 255L52 445H217L386 255L217 64H52Z" />
<glyph unicode="&#xbc;" horiz-adv-x="733" d="M75 312V582L91 554L17 513V624L92 671H195V312H75ZM60 -22L467 685H591L184 -22H60ZM530 0V81H374V162L531 359H640V170H683V81H640V0H530ZM472 170H530V268H547L472 170Z" />
<glyph unicode="&#xbd;" horiz-adv-x="759" d="M75 312V582L91 554L17 513V624L92 671H195V312H75ZM60 -22L467 685H591L184 -22H60ZM443 0V73Q462 87 486 102T532 135T568 173T582 216Q582 244 566 256T533 268Q502 268 483 258T445 234V328Q468 342 497 353T557
364Q615 364 647 347T693 304T707 249Q707 218 691 190T644 140T574 103L564 113H709V0H443Z" />
<glyph unicode="&#xbe;" horiz-adv-x="799" d="M149 321Q120 321 93 330T40 351V440Q67 424 85 414T125 404Q149 404 163 414T178 441Q178 455 168 468T124 481H85V547H125Q145 547 153 556T162 577Q162 591 147 597T115 604Q99 604 82 599T47 585V663Q68 674
93 681T145 689Q173 689 206 681T264 651T289 590Q289 573 281 558T260 533T233 520Q254 514 270 501T295 468T304 426Q304 394 289 374T249 342T199 326T149 321ZM110 -22L517 685H641L234 -22H110ZM596 0V81H440V162L597 359H706V170H749V81H706V0H596ZM538 170H596V268H613L538
170Z" />
<glyph unicode="&#xbf;" horiz-adv-x="525" d="M287 -176Q229 -176 189 -160T125 -115T91 -53T80 18Q80 61 95 89T132 139T176 181T213 229T228 297V307H365V294Q365 239 350 203T314 143T270 100T233 62T218 17Q218 -14 232 -28T267 -47T309 -51Q345 -51 386
-39T459 -1V-129Q441 -141 414 -152T354 -169T287 -176ZM219 371V499H374V371H219Z" />
<glyph unicode="&#xc0;" horiz-adv-x="712" d="M10 0L256 667H478L702 0H497L292 642L398 651L195 0H10ZM163 117L197 257H490L509 117H163ZM313 714L210 824H367L409 714H313Z" />
<glyph unicode="&#xc1;" horiz-adv-x="712" d="M10 0L256 667H478L702 0H497L292 642L398 651L195 0H10ZM163 117L197 257H490L509 117H163ZM308 714L336 826H527L394 714H308Z" />
<glyph unicode="&#xc2;" horiz-adv-x="712" d="M10 0L256 667H478L702 0H497L292 642L398 651L195 0H10ZM163 117L197 257H490L509 117H163ZM192 706L282 828H430L520 706H398L356 760L314 706H192Z" />
<glyph unicode="&#xc3;" horiz-adv-x="712" d="M10 0L256 667H478L702 0H497L292 642L398 651L195 0H10ZM163 117L197 257H490L509 117H163ZM241 716H162Q162 756 178 791T223 847T292 869Q318 869 339 859T379 837T414 814T450 804Q469 804 478 819T488 867H569Q569
818 551 784T505 733T445 715Q409 715 385 725T344 747T314 770T284 780Q259 780 250 758T241 716Z" />
<glyph unicode="&#xc4;" horiz-adv-x="712" d="M10 0L256 667H478L702 0H497L292 642L398 651L195 0H10ZM163 117L197 257H490L509 117H163ZM376 694V803H526V694H376ZM177 694V803H327V694H177Z" />
<glyph unicode="&#xc5;" horiz-adv-x="712" d="M10 0L256 667H478L702 0H497L292 642L398 651L195 0H10ZM163 117L197 257H490L509 117H163ZM354 676Q295 676 261 701T227 772Q227 817 261 842T354 868Q414 868 447 843T481 772Q481 726 448 701T354 676ZM354
741Q378 741 388 747T399 772Q399 789 389 796T354 803Q330 803 320 796T309 772Q309 754 319 748T354 741Z" />
<glyph unicode="&#xc6;" horiz-adv-x="1059" d="M534 608L608 592L233 0H10L479 667H999V517H734V414H960V263H734V151H999V0H534V608ZM616 120H205L254 256H631L616 120Z" />
<glyph unicode="&#xc7;" horiz-adv-x="633" d="M367 -15Q204 -15 117 68T30 333Q30 506 112 595T367 684Q420 684 475 671T583 635V464Q528 502 481 518T395 534Q347 534 312 516T257 455T237 332Q237 255 257 212T314 152T405 135Q436 135 482 150T583 203V32Q557
18 520 8T443 -9T367 -15ZM216 -127L309 7H422L375 -127H216Z" />
<glyph unicode="&#xc8;" horiz-adv-x="598" d="M65 0V667H538V517H266V409H499V259H265V150H538V0H65ZM259 714L156 824H313L355 714H259Z" />
<glyph unicode="&#xc9;" horiz-adv-x="598" d="M65 0V667H538V517H266V409H499V259H265V150H538V0H65ZM254 714L282 826H473L340 714H254Z" />
<glyph unicode="&#xca;" horiz-adv-x="598" d="M65 0V667H538V517H266V409H499V259H265V150H538V0H65ZM138 706L228 828H376L466 706H344L302 760L260 706H138Z" />
<glyph unicode="&#xcb;" horiz-adv-x="598" d="M65 0V667H538V517H266V409H499V259H265V150H538V0H65ZM322 694V803H472V694H322ZM123 694V803H273V694H123Z" />
<glyph unicode="&#xcc;" horiz-adv-x="331" d="M65 0V667H266V0H65ZM130 714L27 824H184L226 714H130Z" />
<glyph unicode="&#xcd;" horiz-adv-x="331" d="M65 0V667H266V0H65ZM125 714L153 826H344L211 714H125Z" />
<glyph unicode="&#xce;" horiz-adv-x="331" d="M65 0V667H266V0H65ZM9 706L99 828H247L337 706H215L173 760L131 706H9Z" />
<glyph unicode="&#xcf;" horiz-adv-x="331" d="M65 0V667H266V0H65ZM193 694V803H343V694H193ZM-6 694V803H144V694H-6Z" />
<glyph unicode="&#xd0;" horiz-adv-x="730" d="M65 0V667H358Q534 667 614 582T695 333Q695 170 615 85T358 0H65ZM265 150H333Q407 150 448 193T490 333Q490 430 449 473T333 517H265V150ZM261 536V644H585V536H261Z" />
<glyph unicode="&#xd1;" horiz-adv-x="725" d="M65 0V667H227L539 259L478 127V667H660V0H520L207 391L247 482V0H65ZM248 716H169Q169 756 185 791T230 847T299 869Q325 869 346 859T386 837T421 814T457 804Q476 804 485 819T495 867H576Q576 818 558 784T512
733T452 715Q416 715 392 725T351 747T321 770T291 780Q266 780 257 758T248 716Z" />
<glyph unicode="&#xd2;" horiz-adv-x="744" d="M372 -15Q273 -15 197 22T78 136T35 333Q35 505 125 593T372 682Q471 682 547 645T666 532T709 334Q709 162 620 74T372 -15ZM372 145Q411 145 440 162T485 221T502 335Q502 407 486 448T440 505T372 522Q333 522
304 505T259 446T242 332Q242 260 258 220T304 162T372 145ZM329 744L226 854H383L425 744H329Z" />
<glyph unicode="&#xd3;" horiz-adv-x="744" d="M372 -15Q273 -15 197 22T78 136T35 333Q35 505 125 593T372 682Q471 682 547 645T666 532T709 334Q709 162 620 74T372 -15ZM372 145Q411 145 440 162T485 221T502 335Q502 407 486 448T440 505T372 522Q333 522
304 505T259 446T242 332Q242 260 258 220T304 162T372 145ZM324 744L352 856H543L410 744H324Z" />
<glyph unicode="&#xd4;" horiz-adv-x="744" d="M372 -15Q273 -15 197 22T78 136T35 333Q35 505 125 593T372 682Q471 682 547 645T666 532T709 334Q709 162 620 74T372 -15ZM372 145Q411 145 440 162T485 221T502 335Q502 407 486 448T440 505T372 522Q333 522
304 505T259 446T242 332Q242 260 258 220T304 162T372 145ZM208 736L298 858H446L536 736H414L372 790L330 736H208Z" />
<glyph unicode="&#xd5;" horiz-adv-x="744" d="M372 -15Q273 -15 197 22T78 136T35 333Q35 505 125 593T372 682Q471 682 547 645T666 532T709 334Q709 162 620 74T372 -15ZM372 145Q411 145 440 162T485 221T502 335Q502 407 486 448T440 505T372 522Q333 522
304 505T259 446T242 332Q242 260 258 220T304 162T372 145ZM257 746H178Q178 786 194 821T239 877T308 899Q334 899 355 889T395 867T430 844T466 834Q485 834 494 849T504 897H585Q585 848 567 814T521 763T461 745Q425 745 401 755T360 777T330 800T300 810Q275
810 266 788T257 746Z" />
<glyph unicode="&#xd6;" horiz-adv-x="744" d="M372 -15Q273 -15 197 22T78 136T35 333Q35 505 125 593T372 682Q471 682 547 645T666 532T709 334Q709 162 620 74T372 -15ZM372 145Q411 145 440 162T485 221T502 335Q502 407 486 448T440 505T372 522Q333 522
304 505T259 446T242 332Q242 260 258 220T304 162T372 145ZM392 724V833H542V724H392ZM193 724V833H343V724H193Z" />
<glyph unicode="&#xd7;" horiz-adv-x="534" d="M72 75L212 256L73 437H183L268 328L354 437H463L324 256L463 75H354L268 184L183 75H72Z" />
<glyph unicode="&#xd8;" horiz-adv-x="744" d="M10 0L605 666H730L134 0H10ZM372 -15Q273 -15 197 22T78 136T35 333Q35 505 125 593T372 682Q471 682 547 645T666 532T709 334Q709 162 620 74T372 -15ZM372 145Q411 145 440 162T485 221T502 335Q502 407 486
448T440 505T372 522Q333 522 304 505T259 446T242 332Q242 260 258 220T304 162T372 145Z" />
<glyph unicode="&#xd9;" horiz-adv-x="740" d="M391 -25Q225 -25 145 37T65 239V667H275V251Q275 187 299 156T380 125Q429 125 457 156T485 251V667H675V239Q675 146 638 88T537 2T391 -25ZM327 724L224 834H381L423 724H327Z" />
<glyph unicode="&#xda;" horiz-adv-x="740" d="M391 -25Q225 -25 145 37T65 239V667H275V251Q275 187 299 156T380 125Q429 125 457 156T485 251V667H675V239Q675 146 638 88T537 2T391 -25ZM322 724L350 836H541L408 724H322Z" />
<glyph unicode="&#xdb;" horiz-adv-x="740" d="M391 -25Q225 -25 145 37T65 239V667H275V251Q275 187 299 156T380 125Q429 125 457 156T485 251V667H675V239Q675 146 638 88T537 2T391 -25ZM206 716L296 838H444L534 716H412L370 770L328 716H206Z" />
<glyph unicode="&#xdc;" horiz-adv-x="740" d="M391 -25Q225 -25 145 37T65 239V667H275V251Q275 187 299 156T380 125Q429 125 457 156T485 251V667H675V239Q675 146 638 88T537 2T391 -25ZM390 704V813H540V704H390ZM191 704V813H341V704H191Z" />
<glyph unicode="&#xdd;" horiz-adv-x="732" d="M280 0V281L25 667H272L453 345L356 343L514 667H707L452 231L480 333V0H280ZM351 714L379 826H570L437 714H351Z" />
<glyph unicode="&#xde;" horiz-adv-x="653" d="M86 0V667H258V568H344Q466 568 532 507T599 334Q599 222 533 161T344 99H258V0H86ZM258 241H328Q357 241 376 249T406 271T423 301T428 334Q428 350 423 366T407 397T376 419T328 428H258V241Z" />
<glyph unicode="&#xdf;" horiz-adv-x="656" d="M60 0V442Q60 518 91 577T181 671T324 706Q410 706 472 684T567 624T601 542Q601 506 587 480T551 436T508 407T471 391Q505 381 541 361T601 301T626 194Q626 135 602 88T531 13T412 -16Q384 -17 352 -13T284 1V146Q311
130 335 124T378 117Q408 117 425 138T443 201Q443 236 428 254T387 279T334 287V431Q369 431 390 445T412 494Q412 512 404 526T378 548T336 557Q296 557 270 529T243 444V0H60Z" />
<glyph unicode="&#xe0;" horiz-adv-x="579" d="M265 -15Q213 -15 170 -6T96 23T47 79T30 167Q30 208 48 241T105 295T209 316Q240 316 272 308T331 287T371 259L374 184Q355 194 334 199T289 204Q246 204 228 194T210 158Q210 146 217 135T237 116T265 108Q310
108 325 113T340 135V302Q340 343 313 361T235 379Q189 379 144 362T74 323V481Q97 496 153 511T285 526Q304 526 333 523T395 511T455 481T501 428T519 342L518 105Q518 66 490 39T406 -1T265 -15ZM236 576L113 703H290L332 576H236Z" />
<glyph unicode="&#xe1;" horiz-adv-x="579" d="M265 -15Q213 -15 170 -6T96 23T47 79T30 167Q30 208 48 241T105 295T209 316Q240 316 272 308T331 287T371 259L374 184Q355 194 334 199T289 204Q246 204 228 194T210 158Q210 146 217 135T237 116T265 108Q310
108 325 113T340 135V302Q340 343 313 361T235 379Q189 379 144 362T74 323V481Q97 496 153 511T285 526Q304 526 333 523T395 511T455 481T501 428T519 342L518 105Q518 66 490 39T406 -1T265 -15ZM225 576L267 703H444L321 576H225Z" />
<glyph unicode="&#xe2;" horiz-adv-x="579" d="M265 -15Q213 -15 170 -6T96 23T47 79T30 167Q30 208 48 241T105 295T209 316Q240 316 272 308T331 287T371 259L374 184Q355 194 334 199T289 204Q246 204 228 194T210 158Q210 146 217 135T237 116T265 108Q310
108 325 113T340 135V302Q340 343 313 361T235 379Q189 379 144 362T74 323V481Q97 496 153 511T285 526Q304 526 333 523T395 511T455 481T501 428T519 342L518 105Q518 66 490 39T406 -1T265 -15ZM127 584L217 706H365L455 584H333L291 638L249 584H127Z" />
<glyph unicode="&#xe3;" horiz-adv-x="579" d="M265 -15Q213 -15 170 -6T96 23T47 79T30 167Q30 208 48 241T105 295T209 316Q240 316 272 308T331 287T371 259L374 184Q355 194 334 199T289 204Q246 204 228 194T210 158Q210 146 217 135T237 116T265 108Q310
108 325 113T340 135V302Q340 343 313 361T235 379Q189 379 144 362T74 323V481Q97 496 153 511T285 526Q304 526 333 523T395 511T455 481T501 428T519 342L518 105Q518 66 490 39T406 -1T265 -15ZM166 575H87Q87 615 103 650T148 706T217 728Q243 728 264 718T304
696T339 673T375 663Q394 663 403 678T413 726H494Q494 677 476 643T430 592T370 574Q334 574 310 584T269 606T239 629T209 639Q184 639 175 617T166 575Z" />
<glyph unicode="&#xe4;" horiz-adv-x="579" d="M265 -15Q213 -15 170 -6T96 23T47 79T30 167Q30 208 48 241T105 295T209 316Q240 316 272 308T331 287T371 259L374 184Q355 194 334 199T289 204Q246 204 228 194T210 158Q210 146 217 135T237 116T265 108Q310
108 325 113T340 135V302Q340 343 313 361T235 379Q189 379 144 362T74 323V481Q97 496 153 511T285 526Q304 526 333 523T395 511T455 481T501 428T519 342L518 105Q518 66 490 39T406 -1T265 -15ZM316 586V695H466V586H316ZM117 586V695H267V586H117Z" />
<glyph unicode="&#xe5;" horiz-adv-x="579" d="M265 -15Q213 -15 170 -6T96 23T47 79T30 167Q30 208 48 241T105 295T209 316Q240 316 272 308T331 287T371 259L374 184Q355 194 334 199T289 204Q246 204 228 194T210 158Q210 146 217 135T237 116T265 108Q310
108 325 113T340 135V302Q340 343 313 361T235 379Q189 379 144 362T74 323V481Q97 496 153 511T285 526Q304 526 333 523T395 511T455 481T501 428T519 342L518 105Q518 66 490 39T406 -1T265 -15ZM281 565Q222 565 188 590T154 661Q154 706 188 731T281 757Q341
757 374 732T408 661Q408 615 375 590T281 565ZM281 630Q305 630 315 636T326 661Q326 678 316 685T281 692Q257 692 247 685T236 661Q236 643 246 637T281 630Z" />
<glyph unicode="&#xe6;" horiz-adv-x="878" d="M431 40Q396 17 347 -3T235 -24Q181 -24 134 -8T59 48T30 158Q30 199 48 235T105 293T209 316Q240 316 272 308T331 287T371 259L374 184Q355 194 334 199T289 204Q246 204 228 189T210 149Q210 137 217 126T238
107T273 99Q290 99 310 100T350 107T379 124L431 40ZM340 182V299Q340 340 313 358T235 376Q189 376 144 359T74 320V481Q97 496 153 511T285 526Q304 526 333 523T395 511T455 481T501 428T519 342L518 207Q518 164 549 144T655 124Q692 124 731 139T793 169V18Q758
-3 713 -14T606 -25Q527 -25 467 5T374 82T340 182ZM340 244Q340 375 408 450T607 525Q692 525 745 489T823 382T848 204H469L445 311H692L673 249Q672 329 656 360T598 391Q579 391 561 379T531 340T519 269L340 244Z" />
<glyph unicode="&#xe7;" horiz-adv-x="506" d="M309 -15Q249 -15 199 3T110 56T51 137T30 244Q30 309 49 361T104 449T191 505T307 525Q350 525 396 516T474 491V338Q438 355 406 367T338 379Q286 379 249 354T211 269Q211 204 242 169T348 134Q385 134 419 149T476
179V28Q441 7 403 -4T309 -15ZM158 -139L251 -5H364L317 -139H158Z" />
<glyph unicode="&#xe8;" horiz-adv-x="568" d="M299 -15Q220 -15 159 17T64 107T30 244Q30 378 98 453T297 529Q382 529 435 493T513 385T538 204H159L135 311H382L363 249Q362 332 346 363T288 395Q269 395 251 383T222 343T211 269Q211 204 242 169T348 134Q373
134 399 141T448 156T486 169V18Q451 5 406 -5T299 -15ZM246 566L123 693H300L342 566H246Z" />
<glyph unicode="&#xe9;" horiz-adv-x="568" d="M299 -15Q220 -15 159 17T64 107T30 244Q30 378 98 453T297 529Q382 529 435 493T513 385T538 204H159L135 311H382L363 249Q362 332 346 363T288 395Q269 395 251 383T222 343T211 269Q211 204 242 169T348 134Q373
134 399 141T448 156T486 169V18Q451 5 406 -5T299 -15ZM235 566L277 693H454L331 566H235Z" />
<glyph unicode="&#xea;" horiz-adv-x="568" d="M299 -15Q220 -15 159 17T64 107T30 244Q30 378 98 453T297 529Q382 529 435 493T513 385T538 204H159L135 311H382L363 249Q362 332 346 363T288 395Q269 395 251 383T222 343T211 269Q211 204 242 169T348 134Q373
134 399 141T448 156T486 169V18Q451 5 406 -5T299 -15ZM137 574L227 696H375L465 574H343L301 628L259 574H137Z" />
<glyph unicode="&#xeb;" horiz-adv-x="568" d="M299 -15Q220 -15 159 17T64 107T30 244Q30 378 98 453T297 529Q382 529 435 493T513 385T538 204H159L135 311H382L363 249Q362 332 346 363T288 395Q269 395 251 383T222 343T211 269Q211 204 242 169T348 134Q373
134 399 141T448 156T486 169V18Q451 5 406 -5T299 -15ZM326 576V685H476V576H326ZM127 576V685H277V576H127Z" />
<glyph unicode="&#xec;" horiz-adv-x="359" d="M96 0V499H268V0H96ZM138 563L45 680H162L224 563H138Z" />
<glyph unicode="&#xed;" horiz-adv-x="359" d="M96 0V499H268V0H96ZM140 556L202 673H319L226 556H140Z" />
<glyph unicode="&#xee;" horiz-adv-x="359" d="M96 0V499H268V0H96ZM38 556L158 678H206L326 556H224L182 600L140 556H38Z" />
<glyph unicode="&#xef;" horiz-adv-x="359" d="M96 0V499H268V0H96ZM37 556V665H157V556H37ZM207 556V665H327V556H207Z" />
<glyph unicode="&#xf0;" horiz-adv-x="589" d="M298 -25Q165 -25 98 41T30 252Q30 384 83 454T227 525Q289 525 324 504T380 446L383 361Q364 386 343 398T298 411Q270 411 250 393T220 340T210 252Q210 173 232 145T298 117Q330 117 347 138T372 207T379 331Q379
416 361 475T312 574T244 643T168 693V700H375Q421 672 454 631T508 540T540 431T550 309Q550 135 488 55T298 -25ZM203 541L178 637L529 699L559 612L203 541Z" />
<glyph unicode="&#xf1;" horiz-adv-x="626" d="M60 465Q77 474 110 484T184 504T268 519T344 525Q410 525 460 510T538 456T566 347V0H384V303Q384 323 379 337T363 360T337 373T301 377Q282 377 264 372T242 361V0H60V465ZM196 565H117Q117 605 133 640T178 696T247
718Q273 718 294 708T334 686T369 663T405 653Q424 653 433 668T443 716H524Q524 667 506 633T460 582T400 564Q364 564 340 574T299 596T269 619T239 629Q214 629 205 607T196 565Z" />
<glyph unicode="&#xf2;" horiz-adv-x="599" d="M298 -15Q165 -15 98 53T30 258Q30 407 97 468T298 529Q385 529 445 503T537 417T569 258Q569 121 499 53T298 -15ZM298 127Q325 127 345 140T377 183T389 258Q389 313 378 341T346 379T298 389Q270 389 250 379T220
341T210 258Q210 187 232 157T298 127ZM255 576L132 703H309L351 576H255Z" />
<glyph unicode="&#xf3;" horiz-adv-x="599" d="M298 -15Q165 -15 98 53T30 258Q30 407 97 468T298 529Q385 529 445 503T537 417T569 258Q569 121 499 53T298 -15ZM298 127Q325 127 345 140T377 183T389 258Q389 313 378 341T346 379T298 389Q270 389 250 379T220
341T210 258Q210 187 232 157T298 127ZM244 576L286 703H463L340 576H244Z" />
<glyph unicode="&#xf4;" horiz-adv-x="599" d="M298 -15Q165 -15 98 53T30 258Q30 407 97 468T298 529Q385 529 445 503T537 417T569 258Q569 121 499 53T298 -15ZM298 127Q325 127 345 140T377 183T389 258Q389 313 378 341T346 379T298 389Q270 389 250 379T220
341T210 258Q210 187 232 157T298 127ZM146 584L236 706H384L474 584H352L310 638L268 584H146Z" />
<glyph unicode="&#xf5;" horiz-adv-x="599" d="M298 -15Q165 -15 98 53T30 258Q30 407 97 468T298 529Q385 529 445 503T537 417T569 258Q569 121 499 53T298 -15ZM298 127Q325 127 345 140T377 183T389 258Q389 313 378 341T346 379T298 389Q270 389 250 379T220
341T210 258Q210 187 232 157T298 127ZM185 575H106Q106 615 122 650T167 706T236 728Q262 728 283 718T323 696T358 673T394 663Q413 663 422 678T432 726H513Q513 677 495 643T449 592T389 574Q353 574 329 584T288 606T258 629T228 639Q203 639 194 617T185
575Z" />
<glyph unicode="&#xf6;" horiz-adv-x="599" d="M298 -15Q165 -15 98 53T30 258Q30 407 97 468T298 529Q385 529 445 503T537 417T569 258Q569 121 499 53T298 -15ZM298 127Q325 127 345 140T377 183T389 258Q389 313 378 341T346 379T298 389Q270 389 250 379T220
341T210 258Q210 187 232 157T298 127ZM335 586V695H485V586H335ZM136 586V695H286V586H136Z" />
<glyph unicode="&#xf7;" horiz-adv-x="628" d="M92 204V317H539V204H92ZM254 23V140H377V23H254ZM254 382V499H377V382H254Z" />
<glyph unicode="&#xf8;" horiz-adv-x="613" d="M171 0H11L439 499H600L171 0ZM298 -15Q165 -15 98 53T30 258Q30 407 97 468T298 529Q385 529 445 503T537 417T569 258Q569 121 499 53T298 -15ZM298 127Q325 127 345 140T377 183T389 258Q389 313 378 341T346
379T298 389Q270 389 250 379T220 341T210 258Q210 187 232 157T298 127Z" />
<glyph unicode="&#xf9;" horiz-adv-x="611" d="M311 -15Q238 -15 182 6T93 74T60 197V509H242V208Q242 172 258 154T312 135Q350 135 366 153T382 208V509H551V197Q551 84 486 35T311 -15ZM271 566L148 693H325L367 566H271Z" />
<glyph unicode="&#xfa;" horiz-adv-x="611" d="M311 -15Q238 -15 182 6T93 74T60 197V509H242V208Q242 172 258 154T312 135Q350 135 366 153T382 208V509H551V197Q551 84 486 35T311 -15ZM260 566L302 693H479L356 566H260Z" />
<glyph unicode="&#xfb;" horiz-adv-x="611" d="M311 -15Q238 -15 182 6T93 74T60 197V509H242V208Q242 172 258 154T312 135Q350 135 366 153T382 208V509H551V197Q551 84 486 35T311 -15ZM162 574L252 696H400L490 574H368L326 628L284 574H162Z" />
<glyph unicode="&#xfc;" horiz-adv-x="611" d="M311 -15Q238 -15 182 6T93 74T60 197V509H242V208Q242 172 258 154T312 135Q350 135 366 153T382 208V509H551V197Q551 84 486 35T311 -15ZM351 576V685H501V576H351ZM152 576V685H302V576H152Z" />
<glyph unicode="&#xfd;" horiz-adv-x="616" d="M194 -197Q165 -197 136 -192T85 -176V-31Q106 -38 121 -40T151 -43Q172 -43 189 -35T218 -1T234 75L239 -33L20 509H228L322 184H307L399 509H596L404 10Q375 -65 342 -110T272 -176T194 -197ZM252 546L294 673H471L348
546H252Z" />
<glyph unicode="&#xfe;" horiz-adv-x="606" d="M240 -178H60V700H240V-178ZM240 132Q254 125 273 121T305 117Q333 117 353 127T384 163T396 240Q396 280 387 305T360 343T311 355Q298 355 278 352T240 341L83 470Q103 476 132 482T194 493T260 501T319 505Q397
505 454 480T544 395T576 233Q576 159 550 101T475 9T358 -25Q346 -25 319 -24T262 -11T208 28L240 132Z" />
<glyph unicode="&#xff;" horiz-adv-x="616" d="M194 -197Q165 -197 136 -192T85 -176V-31Q106 -38 121 -40T151 -43Q172 -43 189 -35T218 -1T234 75L239 -33L20 509H228L322 184H307L399 509H596L404 10Q375 -65 342 -110T272 -176T194 -197ZM343 556V665H493V556H343ZM144
556V665H294V556H144Z" />
<glyph unicode="&#x2013;" horiz-adv-x="560" d="M69 232V349H489V232H69Z" />
<glyph unicode="&#x2014;" horiz-adv-x="891" d="M79 232V349H812V232H79Z" />
<glyph unicode="&#x2018;" horiz-adv-x="301" d="M143 480L47 676H186L260 480H143Z" />
<glyph unicode="&#x2019;" horiz-adv-x="301" d="M47 480L121 676H260L164 480H47Z" />
<glyph unicode="&#x201a;" horiz-adv-x="341" d="M72 -112L146 84H285L189 -112H72Z" />
<glyph unicode="&#x201c;" horiz-adv-x="479" d="M318 480L222 676H361L435 480H318ZM144 480L48 676H187L261 480H144Z" />
<glyph unicode="&#x201d;" horiz-adv-x="479" d="M222 480L296 676H435L339 480H222ZM48 480L122 676H261L165 480H48Z" />
<glyph unicode="&#x201e;" horiz-adv-x="516" d="M246 -112L320 84H459L363 -112H246ZM72 -112L146 84H285L189 -112H72Z" />
<glyph unicode="&#x2022;" horiz-adv-x="530" d="M266 144Q216 144 175 168T109 233T84 325Q84 376 108 417T174 482T266 506Q316 506 357 482T422 417T446 325Q446 275 422 234T357 168T266 144Z" />
<glyph unicode="&#x2039;" horiz-adv-x="400" d="M200 64L31 255L200 445H365L183 255L365 64H200Z" />
<glyph unicode="&#x203a;" horiz-adv-x="412" d="M39 64L221 255L39 445H204L373 255L204 64H39Z" />
</font>
</defs>
</svg>
